<svg width="143" height="81" viewBox="0 0 143 81" fill="none" xmlns="http://www.w3.org/2000/svg">
<path d="M3.381 35V9.82232H8.05686V35H3.381ZM25.3336 15.5772C26.8683 15.5772 28.2351 15.877 29.434 16.4764C30.6569 17.0759 31.6161 17.9991 32.3115 19.246C33.0068 20.4689 33.3545 22.0515 33.3545 23.9938V35H28.8585V24.5692C28.8585 22.8668 28.4509 21.5959 27.6356 20.7566C26.8443 19.9174 25.7293 19.4977 24.2906 19.4977C23.2355 19.4977 22.3003 19.7136 21.485 20.1452C20.6698 20.5768 20.0343 21.2242 19.5787 22.0874C19.1471 22.9267 18.9313 23.9938 18.9313 25.2886V35H14.4353V15.793H18.7155V20.9724L17.9602 19.3898C18.6316 18.1669 19.6027 17.2318 20.8736 16.5843C22.1684 15.9129 23.6551 15.5772 25.3336 15.5772ZM46.2876 35.2518C44.1775 35.2518 42.5469 34.7123 41.3959 33.6332C40.2449 32.5302 39.6695 30.9116 39.6695 28.7775V11.5488H44.1655V28.6696C44.1655 29.5808 44.3933 30.2882 44.8489 30.7917C45.3284 31.2953 45.9879 31.5471 46.8271 31.5471C47.8342 31.5471 48.6735 31.2833 49.3449 30.7558L50.6038 33.9569C50.0762 34.3885 49.4288 34.7123 48.6615 34.9281C47.8942 35.1439 47.1029 35.2518 46.2876 35.2518ZM36.5043 19.5337V15.9369H49.3089V19.5337H36.5043ZM62.698 35.2518C60.5639 35.2518 58.6936 34.8321 57.087 33.9929C55.5044 33.1297 54.2695 31.9547 53.3823 30.468C52.5191 28.9813 52.0874 27.2908 52.0874 25.3965C52.0874 23.4782 52.5071 21.7877 53.3463 20.325C54.2096 18.8383 55.3845 17.6754 56.8712 16.8361C58.3819 15.9968 60.0963 15.5772 62.0146 15.5772C63.885 15.5772 65.5515 15.9849 67.0142 16.8001C68.4769 17.6154 69.6279 18.7664 70.4672 20.2531C71.3064 21.7398 71.726 23.4902 71.726 25.5044C71.726 25.6962 71.714 25.9121 71.6901 26.1518C71.6901 26.3916 71.6781 26.6194 71.6541 26.8352H55.6483V23.8499H69.2802L67.5178 24.7851C67.5417 23.682 67.3139 22.7109 66.8344 21.8716C66.3548 21.0324 65.6954 20.373 64.8561 19.8934C64.0408 19.4138 63.0937 19.174 62.0146 19.174C60.9116 19.174 59.9405 19.4138 59.1012 19.8934C58.286 20.373 57.6385 21.0444 57.1589 21.9076C56.7034 22.7469 56.4756 23.742 56.4756 24.893V25.6123C56.4756 26.7633 56.7393 27.7824 57.2669 28.6696C57.7944 29.5568 58.5377 30.2402 59.4969 30.7198C60.456 31.1994 61.559 31.4392 62.8059 31.4392C63.885 31.4392 64.8561 31.2713 65.7194 30.9356C66.5826 30.5999 67.3499 30.0724 68.0213 29.353L70.4312 32.1226C69.5679 33.1297 68.4769 33.909 67.1581 34.4605C65.8632 34.988 64.3766 35.2518 62.698 35.2518ZM76.0447 35V15.793H80.3249V21.0803L79.8214 19.5337C80.3969 18.2389 81.2961 17.2557 82.519 16.5843C83.7659 15.9129 85.3125 15.5772 87.1589 15.5772V19.8574C86.9671 19.8095 86.7872 19.7855 86.6194 19.7855C86.4515 19.7615 86.2837 19.7495 86.1158 19.7495C84.4133 19.7495 83.0585 20.2531 82.0514 21.2602C81.0443 22.2433 80.5408 23.718 80.5408 25.6843V35H76.0447ZM101.871 15.5772C103.406 15.5772 104.773 15.877 105.972 16.4764C107.195 17.0759 108.154 17.9991 108.849 19.246C109.544 20.4689 109.892 22.0515 109.892 23.9938V35H105.396V24.5692C105.396 22.8668 104.988 21.5959 104.173 20.7566C103.382 19.9174 102.267 19.4977 100.828 19.4977C99.7731 19.4977 98.8379 19.7136 98.0227 20.1452C97.2074 20.5768 96.572 21.2242 96.1164 22.0874C95.6847 22.9267 95.4689 23.9938 95.4689 25.2886V35H90.9729V15.793H95.2531V20.9724L94.4978 19.3898C95.1692 18.1669 96.1403 17.2318 97.4112 16.5843C98.7061 15.9129 100.193 15.5772 101.871 15.5772ZM121.53 35.2518C119.924 35.2518 118.377 35.048 116.89 34.6403C115.428 34.2087 114.265 33.6932 113.402 33.0937L115.128 29.6767C115.991 30.2282 117.022 30.6838 118.221 31.0435C119.42 31.4032 120.619 31.583 121.818 31.583C123.233 31.583 124.252 31.3912 124.875 31.0075C125.523 30.6239 125.847 30.1083 125.847 29.4609C125.847 28.9334 125.631 28.5377 125.199 28.274C124.767 27.9862 124.204 27.7704 123.509 27.6265C122.813 27.4827 122.034 27.3508 121.171 27.2309C120.331 27.111 119.48 26.9551 118.617 26.7633C117.778 26.5475 117.01 26.2478 116.315 25.8641C115.62 25.4565 115.056 24.9169 114.624 24.2455C114.193 23.5741 113.977 22.6869 113.977 21.5839C113.977 20.361 114.325 19.3059 115.02 18.4187C115.716 17.5075 116.687 16.8121 117.934 16.3325C119.204 15.829 120.703 15.5772 122.43 15.5772C123.724 15.5772 125.031 15.7211 126.35 16.0088C127.669 16.2966 128.76 16.7042 129.623 17.2318L127.897 20.6487C126.986 20.0972 126.062 19.7255 125.127 19.5337C124.216 19.3179 123.305 19.21 122.394 19.21C121.027 19.21 120.008 19.4138 119.336 19.8215C118.689 20.2291 118.365 20.7446 118.365 21.3681C118.365 21.9436 118.581 22.3752 119.013 22.6629C119.444 22.9507 120.008 23.1785 120.703 23.3463C121.398 23.5142 122.166 23.6581 123.005 23.7779C123.868 23.8739 124.72 24.0297 125.559 24.2455C126.398 24.4613 127.165 24.7611 127.861 25.1447C128.58 25.5044 129.156 26.02 129.587 26.6914C130.019 27.3628 130.235 28.238 130.235 29.317C130.235 30.516 129.875 31.5591 129.156 32.4463C128.46 33.3335 127.465 34.0289 126.17 34.5324C124.875 35.012 123.329 35.2518 121.53 35.2518Z" fill="#ffffff"/>
<path d="M7.455 58.77H19.67V62.62H7.455V58.77ZM7.84 72H3.29V47.5H21.175V51.315H7.84V72ZM31.5952 72V62.305L32.6102 65.105L21.9702 47.5H26.8352L35.3752 61.675H32.6452L41.2552 47.5H45.7352L35.0952 65.105L36.1452 62.305V72H31.5952ZM47.7138 72V53.31H52.0888V72H47.7138ZM49.9188 50.23C49.1021 50.23 48.4254 49.9733 47.8888 49.46C47.3754 48.9467 47.1188 48.3283 47.1188 47.605C47.1188 46.8583 47.3754 46.24 47.8888 45.75C48.4254 45.2367 49.1021 44.98 49.9188 44.98C50.7354 44.98 51.4004 45.225 51.9138 45.715C52.4504 46.1817 52.7188 46.7767 52.7188 47.5C52.7188 48.27 52.4621 48.9233 51.9488 49.46C51.4354 49.9733 50.7588 50.23 49.9188 50.23Z" fill="#ffffff"/>
<path d="M45.5107 44.3835L47.3835 51.4893L54.4893 49.6165L52.6165 42.5107L45.5107 44.3835ZM132.786 26.569L131.069 33.714L138.214 35.431L139.931 28.286L132.786 26.569ZM50 47C49.5468 47.7776 49.5472 47.7778 49.5479 47.7782C49.5485 47.7786 49.5495 47.7792 49.5508 47.7799C49.5534 47.7814 49.5572 47.7836 49.5622 47.7865C49.5723 47.7924 49.5872 47.8011 49.607 47.8126C49.6465 47.8355 49.7052 47.8696 49.7824 47.9143C49.9369 48.0037 50.1655 48.1356 50.4626 48.3063C51.0569 48.6477 51.9256 49.1439 53.0243 49.7642C55.2218 51.0048 58.3402 52.742 62.0259 54.7297C69.3941 58.7031 79.0427 63.6845 88.1366 67.6984C92.6831 69.7051 97.1038 71.4757 101.04 72.7581C104.958 74.0347 108.463 74.8505 111.155 74.8998C112.501 74.9245 113.72 74.7601 114.702 74.3056C115.718 73.8355 116.465 73.0589 116.801 71.9526C117.124 70.8874 117.035 69.6158 116.618 68.1733C116.198 66.7225 115.424 65.0214 114.278 63.0481L112.722 63.9519C113.826 65.8536 114.524 67.4142 114.889 68.6734C115.255 69.9408 115.261 70.8274 115.078 71.4302C114.908 71.9918 114.549 72.393 113.946 72.672C113.31 72.9664 112.397 73.1223 111.188 73.1002C108.771 73.0558 105.472 72.3091 101.597 71.0466C97.7399 69.7899 93.3794 68.0449 88.8634 66.0516C79.8323 62.0655 70.2309 57.1094 62.8803 53.1453C59.2067 51.1642 56.0985 49.4327 53.9093 48.1967C52.8147 47.5788 51.9499 47.0848 51.3591 46.7455C51.0638 46.5758 50.8369 46.4448 50.6841 46.3564C50.6076 46.3121 50.5497 46.2785 50.511 46.2561C50.4917 46.2448 50.4771 46.2364 50.4674 46.2307C50.4626 46.2279 50.459 46.2258 50.4566 46.2244C50.4554 46.2237 50.4546 46.2232 50.454 46.2229C50.4534 46.2226 50.4532 46.2224 50 47ZM114.278 63.0481C112.046 59.2033 111.188 56.5862 111.182 54.8407C111.179 53.9931 111.377 53.3819 111.689 52.9237C112.004 52.4616 112.482 52.0863 113.151 51.7929C114.526 51.1894 116.541 51.0017 118.997 51.0405C121.434 51.0791 124.14 51.3331 126.875 51.5228C129.579 51.7104 132.302 51.8339 134.655 51.5824C136.984 51.3336 139.14 50.7003 140.527 49.206C141.962 47.66 142.381 45.415 141.73 42.4183C141.082 39.436 139.349 35.5611 136.267 30.5299L134.733 31.4701C137.776 36.4389 139.387 40.1108 139.971 42.8005C140.552 45.4756 140.093 47.0275 139.208 47.9815C138.274 48.9872 136.668 49.5571 134.464 49.7926C132.284 50.0255 129.703 49.9146 127 49.7272C124.329 49.5419 121.527 49.2803 119.025 49.2407C116.541 49.2015 114.185 49.3731 112.427 50.1446C111.529 50.5387 110.751 51.1048 110.202 51.9103C109.65 52.7197 109.378 53.7022 109.382 54.8468C109.39 57.0857 110.454 60.0467 112.722 63.9519L114.278 63.0481Z" fill="#229EBC"/>
</svg>
