<svg width="1280" height="2154" viewBox="0 0 1280 2154" fill="none" xmlns="http://www.w3.org/2000/svg">
<g clip-path="url(#clip0_373_2)">
<rect width="1280" height="2154" fill="#2B2F30"/>
<g filter="url(#filter0_d_373_2)">
<path d="M222.319 396.898L144.008 373.79L120.899 452.102L199.211 475.21L222.319 396.898ZM-499.891 42C-509.556 39.4331 -509.558 39.4388 -509.56 39.4466C-509.561 39.4519 -509.564 39.4618 -509.566 39.4724C-509.572 39.4936 -509.58 39.5229 -509.59 39.5602C-509.609 39.6349 -509.637 39.7416 -509.673 39.88C-509.744 40.1568 -509.848 40.56 -509.98 41.0856C-510.245 42.1368 -510.626 43.6777 -511.101 45.6756C-512.049 49.6712 -513.373 55.4968 -514.891 62.8915C-517.926 77.6768 -521.744 98.7576 -524.901 124.042C-531.204 174.529 -534.924 242.166 -524.294 310.047C-513.668 377.896 -488.571 446.805 -436.531 498.793C-384.282 550.991 -306.007 585 -191.391 585V565C-301.806 565 -374.609 532.384 -422.396 484.644C-470.393 436.695 -494.292 372.354 -504.534 306.953C-514.771 241.584 -511.229 175.971 -505.055 126.52C-501.973 101.836 -498.247 81.2763 -495.299 66.9132C-493.825 59.7337 -492.547 54.1081 -491.642 50.2961C-491.189 48.3902 -490.83 46.9382 -490.587 45.9724C-490.465 45.4895 -490.372 45.1282 -490.311 44.8926C-490.281 44.7748 -490.258 44.6884 -490.244 44.634C-490.237 44.6067 -490.232 44.5875 -490.229 44.5763C-490.227 44.5707 -490.227 44.5684 -490.226 44.5656C-490.226 44.5652 -490.226 44.5669 -499.891 42ZM-191.391 585C-167.764 585 -132.721 574.944 -94.7063 560.862C-56.2416 546.612 -13.2822 527.666 26.8051 508.798C66.9209 489.916 104.304 471.044 131.649 456.897C145.325 449.822 156.499 443.925 164.259 439.794C168.139 437.728 171.166 436.104 173.225 434.994C174.255 434.439 175.043 434.013 175.575 433.725C175.842 433.581 176.044 433.471 176.18 433.397C176.248 433.36 176.3 433.332 176.335 433.313C176.352 433.304 176.366 433.296 176.375 433.291C176.38 433.289 176.383 433.287 176.386 433.286C176.388 433.284 176.39 433.283 171.609 424.5C166.828 415.717 166.828 415.717 166.826 415.718C166.824 415.719 166.822 415.72 166.818 415.722C166.81 415.727 166.799 415.733 166.783 415.742C166.751 415.759 166.702 415.786 166.637 415.821C166.507 415.892 166.311 415.998 166.051 416.138C165.532 416.42 164.757 416.839 163.74 417.386C161.707 418.481 158.709 420.09 154.86 422.14C147.16 426.239 136.057 432.099 122.46 439.134C95.2579 453.206 58.1096 471.959 18.2878 490.702C-21.5624 509.459 -63.9468 528.138 -101.654 542.107C-139.812 556.243 -171.769 565 -191.391 565V585Z" fill="#8ECAE6"/>
</g>
<g filter="url(#filter1_d_373_2)">
<path d="M224.622 733.394L231.024 741.076L224.622 733.394ZM695.899 773.136L683.061 692.502L602.427 705.341L615.266 785.975L695.899 773.136ZM-228.547 545.232C-237.349 549.978 -237.346 549.982 -237.343 549.988C-237.341 549.992 -237.337 550 -237.333 550.008C-237.324 550.024 -237.312 550.045 -237.297 550.073C-237.267 550.128 -237.224 550.207 -237.169 550.309C-237.058 550.512 -236.896 550.807 -236.683 551.191C-236.259 551.957 -235.633 553.076 -234.812 554.517C-233.17 557.399 -230.745 561.572 -227.58 566.795C-221.252 577.236 -211.957 591.891 -200.042 608.826C-176.254 642.637 -141.833 685.813 -99.5314 722.689C-57.3054 759.5 -6.52941 790.642 49.9436 799.199C106.897 807.828 168.377 793.286 231.024 741.076L218.22 725.712C159.536 774.62 103.705 787.116 52.9397 779.425C1.69424 771.66 -45.6557 743.123 -86.3891 707.613C-127.047 672.169 -160.42 630.385 -183.685 597.317C-195.297 580.812 -204.344 566.547 -210.476 556.429C-213.541 551.371 -215.875 547.354 -217.435 544.616C-218.215 543.247 -218.801 542.199 -219.188 541.5C-219.381 541.151 -219.525 540.889 -219.618 540.719C-219.664 540.634 -219.698 540.572 -219.719 540.532C-219.73 540.513 -219.737 540.499 -219.742 540.491C-219.744 540.488 -219.745 540.486 -219.746 540.484C-219.746 540.484 -219.745 540.486 -228.547 545.232ZM231.024 741.076C324.629 663.065 427.057 664.284 507.011 685.417C547.024 695.993 581.191 711.524 605.372 724.434C617.448 730.882 626.997 736.656 633.497 740.797C636.746 742.866 639.23 744.527 640.885 745.657C641.713 746.222 642.332 746.654 642.736 746.938C642.938 747.081 643.086 747.186 643.179 747.252C643.225 747.286 643.258 747.309 643.277 747.323C643.286 747.329 643.292 747.334 643.295 747.336C643.296 747.336 643.295 747.336 643.296 747.336C643.294 747.335 643.292 747.333 649.163 739.238C655.034 731.143 655.03 731.14 655.025 731.136C655.022 731.134 655.016 731.13 655.01 731.126C654.999 731.117 654.983 731.107 654.965 731.093C654.928 731.066 654.876 731.03 654.811 730.983C654.681 730.89 654.495 730.757 654.254 730.588C653.773 730.249 653.073 729.761 652.163 729.14C650.344 727.897 647.682 726.12 644.243 723.929C637.367 719.548 627.375 713.509 614.791 706.791C589.651 693.369 554.02 677.155 512.122 666.081C428.254 643.914 318.412 642.211 218.22 725.712L231.024 741.076Z" fill="#229EBC"/>
</g>
<g filter="url(#filter2_d_373_2)">
<path d="M1702.92 -384.221L1760.44 -326.265L1702.48 -268.752L1644.97 -326.708L1702.92 -384.221ZM898.657 532.668L976.758 556.479L952.948 634.579L874.847 610.769L898.657 532.668ZM1702.7 -326.486C1712.7 -326.448 1712.7 -326.442 1712.7 -326.431C1712.7 -326.421 1712.7 -326.405 1712.7 -326.385C1712.7 -326.345 1712.7 -326.285 1712.7 -326.205C1712.7 -326.046 1712.7 -325.81 1712.7 -325.497C1712.69 -324.872 1712.69 -323.943 1712.68 -322.721C1712.66 -320.277 1712.63 -316.661 1712.59 -311.966C1712.49 -302.577 1712.32 -288.868 1712.02 -271.577C1711.41 -236.997 1710.28 -188.078 1708.18 -130.706C1703.97 -16.0014 1695.86 132.661 1680.24 268.132C1672.43 335.862 1662.72 400.449 1650.65 455.924C1638.62 511.202 1624.08 558.199 1606.3 590.267C1597.4 606.295 1587.3 619.331 1575.63 627.646C1563.64 636.193 1550.03 639.665 1535.39 636.305C1521.21 633.052 1507.25 623.669 1493.36 609.067C1479.4 594.395 1464.89 573.796 1449.71 546.85L1467.13 537.031C1481.86 563.172 1495.44 582.238 1507.85 595.282C1520.32 608.397 1531 614.779 1539.86 616.811C1548.26 618.737 1556.09 617.015 1564.03 611.357C1572.29 605.468 1580.64 595.291 1588.81 580.565C1605.14 551.125 1619.19 506.456 1631.11 451.671C1642.99 397.081 1652.6 333.208 1660.37 265.841C1675.9 131.119 1683.99 -16.9549 1688.19 -131.439C1690.29 -188.661 1691.42 -237.449 1692.02 -271.927C1692.32 -289.165 1692.49 -302.824 1692.59 -312.169C1692.63 -316.841 1692.66 -320.435 1692.68 -322.858C1692.69 -324.07 1692.69 -324.989 1692.7 -325.604C1692.7 -325.911 1692.7 -326.143 1692.7 -326.297C1692.7 -326.374 1692.7 -326.431 1692.7 -326.469C1692.7 -326.488 1692.7 -326.502 1692.7 -326.512C1692.7 -326.521 1692.7 -326.525 1702.7 -326.486ZM1449.71 546.85C1419.98 494.096 1394.99 465.725 1374.09 453.535C1363.89 447.587 1354.95 445.657 1346.92 446.31C1338.82 446.968 1330.71 450.328 1322.39 456.511C1305.37 469.144 1289.06 492.303 1272.56 521.862C1256.17 551.244 1240.44 585.325 1223.85 619.118C1207.41 652.598 1190.18 685.695 1171.15 711.828C1152.3 737.729 1130.47 758.519 1104.23 764.709C1077.18 771.092 1048.63 761.319 1018.25 733.477C988.014 705.763 954.669 659.08 916.977 588.325L934.628 578.922C971.939 648.96 1004.01 693.297 1031.77 718.733C1059.38 744.042 1081.4 749.548 1099.64 745.243C1118.71 740.745 1136.91 724.879 1154.98 700.057C1172.88 675.468 1189.46 643.777 1205.9 610.304C1222.17 577.146 1238.36 542.111 1255.1 512.116C1271.74 482.298 1289.77 455.818 1310.46 440.453C1320.99 432.637 1332.58 427.408 1345.3 426.375C1358.08 425.337 1371.06 428.615 1384.17 436.259C1409.88 451.254 1437.03 483.611 1467.13 537.031L1449.71 546.85Z" fill="#C5CE4A"/>
</g>
<rect x="-41" y="1903" width="129" height="140" fill="#D9D9D9"/>
<rect width="80.5166" height="71.1006" transform="matrix(0.591759 0.806115 -0.76123 0.648482 438.047 1846.87)" fill="#D9D9D9"/>
<rect width="223.934" height="217.681" transform="matrix(0.957103 -0.289749 0.252425 0.967616 96.1953 1817.79)" fill="#8ECAE6"/>
<rect width="146.213" height="140.387" transform="matrix(0.883439 0.468547 -0.415673 0.909514 135.023 1586)" fill="#C5CE4A"/>
<rect width="214.603" height="138.695" transform="matrix(0.905248 0.424884 -0.374947 0.927046 24.5156 1752.9)" fill="#229EBC"/>
<rect width="212.141" height="140.117" transform="matrix(0.992004 0.126206 -0.108978 0.994044 285.926 1925.41)" fill="#474D4E"/>
<rect width="120.384" height="278.268" transform="matrix(0.993001 -0.118107 0.101959 0.994789 -23.582 1610.04)" fill="#8ECAE6"/>
<rect x="-41" y="2090" width="129" height="142" fill="#D9D9D9"/>
<rect width="80.5166" height="71.1006" transform="matrix(0.591759 0.806115 -0.76123 0.648482 438.047 2034.8)" fill="#D9D9D9"/>
<rect width="223.934" height="217.681" transform="matrix(0.957103 -0.289749 0.252425 0.967616 96.1953 2005.72)" fill="#8ECAE6"/>
<rect width="224.22" height="217.436" transform="matrix(0.947548 0.319613 -0.279111 0.960259 -42.3105 1769.73)" fill="#474D4E"/>
<rect width="146.213" height="140.387" transform="matrix(0.883439 0.468547 -0.415673 0.909514 135.023 1773.94)" fill="#C5CE4A"/>
<rect width="214.603" height="138.695" transform="matrix(0.905248 0.424884 -0.374947 0.927046 24.5156 1940.83)" fill="#229EBC"/>
<rect width="123.532" height="92.3877" transform="matrix(0.625514 0.780213 -0.732134 0.68116 291 1713)" fill="#229EBC"/>
<rect width="212.141" height="140.117" transform="matrix(0.992004 0.126206 -0.108978 0.994044 285.926 2113.34)" fill="#474D4E"/>
<rect x="688" y="2005" width="245" height="149" fill="#D9D9D9"/>
<rect x="1203" y="1594" width="77" height="66" fill="#D9D9D9"/>
<rect x="947" y="1952" width="161" height="202" fill="#474D4E"/>
<rect x="1119" y="2038" width="161" height="122" fill="#C5CE4A"/>
<rect x="772" y="1872" width="161" height="122" fill="#229EBC"/>
<rect x="947" y="1790" width="161" height="156" fill="#8ECAE6"/>
<rect x="1119" y="1668" width="161" height="278" fill="#C5CE4A"/>
<rect x="1119" y="1952" width="161" height="78" fill="#229EBC"/>
</g>
<defs>
<filter id="filter0_d_373_2" x="-532" y="38.4453" width="763.318" height="555.555" filterUnits="userSpaceOnUse" color-interpolation-filters="sRGB">
<feFlood flood-opacity="0" result="BackgroundImageFix"/>
<feColorMatrix in="SourceAlpha" type="matrix" values="0 0 0 0 0 0 0 0 0 0 0 0 0 0 0 0 0 0 127 0" result="hardAlpha"/>
<feOffset dx="4" dy="4"/>
<feGaussianBlur stdDeviation="2.5"/>
<feComposite in2="hardAlpha" operator="out"/>
<feColorMatrix type="matrix" values="0 0 0 0 0.829167 0 0 0 0 0.966721 0 0 0 0 1 0 0 0 1 0"/>
<feBlend mode="normal" in2="BackgroundImageFix" result="effect1_dropShadow_373_2"/>
<feBlend mode="normal" in="SourceGraphic" in2="effect1_dropShadow_373_2" result="shape"/>
</filter>
<filter id="filter1_d_373_2" x="-238.344" y="539.484" width="943.244" height="271.039" filterUnits="userSpaceOnUse" color-interpolation-filters="sRGB">
<feFlood flood-opacity="0" result="BackgroundImageFix"/>
<feColorMatrix in="SourceAlpha" type="matrix" values="0 0 0 0 0 0 0 0 0 0 0 0 0 0 0 0 0 0 127 0" result="hardAlpha"/>
<feOffset dx="4" dy="4"/>
<feGaussianBlur stdDeviation="2.5"/>
<feComposite in2="hardAlpha" operator="out"/>
<feColorMatrix type="matrix" values="0 0 0 0 0.831244 0 0 0 0 0.963771 0 0 0 0 0.995833 0 0 0 1 0"/>
<feBlend mode="normal" in2="BackgroundImageFix" result="effect1_dropShadow_373_2"/>
<feBlend mode="normal" in="SourceGraphic" in2="effect1_dropShadow_373_2" result="shape"/>
</filter>
<filter id="filter2_d_373_2" x="873.848" y="-385.221" width="895.588" height="1160.81" filterUnits="userSpaceOnUse" color-interpolation-filters="sRGB">
<feFlood flood-opacity="0" result="BackgroundImageFix"/>
<feColorMatrix in="SourceAlpha" type="matrix" values="0 0 0 0 0 0 0 0 0 0 0 0 0 0 0 0 0 0 127 0" result="hardAlpha"/>
<feOffset dx="4" dy="4"/>
<feGaussianBlur stdDeviation="2.5"/>
<feComposite in2="hardAlpha" operator="out"/>
<feColorMatrix type="matrix" values="0 0 0 0 0.982298 0 0 0 0 1 0 0 0 0 0.731944 0 0 0 1 0"/>
<feBlend mode="normal" in2="BackgroundImageFix" result="effect1_dropShadow_373_2"/>
<feBlend mode="normal" in="SourceGraphic" in2="effect1_dropShadow_373_2" result="shape"/>
</filter>
<clipPath id="clip0_373_2">
<rect width="1280" height="2154" fill="white"/>
</clipPath>
</defs>
</svg>
