<svg width="407" height="943" viewBox="0 0 407 943" fill="none" xmlns="http://www.w3.org/2000/svg">
<g filter="url(#filter0_d_290_300)">
<path d="M829.922 -384.221L887.435 -326.265L829.479 -268.752L771.966 -326.708L829.922 -384.221ZM25.6572 532.668L103.758 556.479L79.9477 634.579L1.84688 610.769L25.6572 532.668ZM829.701 -326.486C839.7 -326.448 839.7 -326.442 839.7 -326.431C839.7 -326.421 839.7 -326.405 839.7 -326.385C839.7 -326.345 839.7 -326.285 839.699 -326.205C839.699 -326.046 839.698 -325.81 839.696 -325.497C839.693 -324.872 839.687 -323.943 839.679 -322.721C839.662 -320.277 839.633 -316.661 839.586 -311.966C839.491 -302.577 839.32 -288.868 839.018 -271.577C838.414 -236.997 837.284 -188.078 835.179 -130.706C830.97 -16.0014 822.859 132.661 807.238 268.132C799.428 335.862 789.724 400.449 777.652 455.924C765.622 511.202 751.083 558.199 733.295 590.267C724.404 606.295 714.304 619.331 702.633 627.646C690.636 636.193 677.034 639.665 662.39 636.305C648.212 633.052 634.245 623.669 620.356 609.067C606.399 594.395 591.892 573.796 576.707 546.85L594.131 537.031C608.862 563.172 622.438 582.238 634.846 595.282C647.321 608.397 658.001 614.779 666.862 616.811C675.257 618.737 683.087 617.015 691.028 611.357C699.294 605.468 707.637 595.291 715.806 580.565C732.137 551.125 746.186 506.456 758.109 451.671C769.989 397.081 779.602 333.208 787.37 265.841C802.905 131.119 810.992 -16.9549 815.192 -131.439C817.292 -188.661 818.419 -237.449 819.021 -271.927C819.323 -289.165 819.492 -302.824 819.587 -312.169C819.634 -316.841 819.663 -320.435 819.679 -322.858C819.688 -324.07 819.693 -324.989 819.696 -325.604C819.698 -325.911 819.699 -326.143 819.7 -326.297C819.7 -326.374 819.7 -326.431 819.7 -326.469C819.7 -326.488 819.701 -326.502 819.701 -326.512C819.701 -326.521 819.701 -326.525 829.701 -326.486ZM576.707 546.85C546.98 494.096 521.991 465.725 501.09 453.535C490.891 447.587 481.95 445.657 473.918 446.31C465.82 446.968 457.715 450.328 449.386 456.511C432.37 469.144 416.058 492.303 399.565 521.862C383.17 551.244 367.439 585.325 350.849 619.118C334.412 652.598 317.175 685.695 298.151 711.828C279.296 737.729 257.469 758.519 231.235 764.709C204.18 771.092 175.631 761.319 145.253 733.477C115.014 705.763 81.6692 659.08 43.9766 588.326L61.6282 578.922C98.9392 648.96 131.013 693.297 158.766 718.733C186.38 744.042 208.398 749.548 226.642 745.243C245.707 740.745 263.912 724.879 281.982 700.057C299.883 675.468 316.463 643.777 332.895 610.305C349.174 577.146 365.363 542.111 382.1 512.116C398.738 482.298 416.768 455.818 437.464 440.453C447.992 432.637 459.585 427.409 472.298 426.376C485.077 425.337 498.06 428.615 511.166 436.259C536.877 451.254 564.029 483.611 594.131 537.031L576.707 546.85Z" fill="#C5CE4A"/>
</g>
<defs>
<filter id="filter0_d_290_300" x="0.847656" y="-385.221" width="895.588" height="1160.81" filterUnits="userSpaceOnUse" color-interpolation-filters="sRGB">
<feFlood flood-opacity="0" result="BackgroundImageFix"/>
<feColorMatrix in="SourceAlpha" type="matrix" values="0 0 0 0 0 0 0 0 0 0 0 0 0 0 0 0 0 0 127 0" result="hardAlpha"/>
<feOffset dx="4" dy="4"/>
<feGaussianBlur stdDeviation="2.5"/>
<feComposite in2="hardAlpha" operator="out"/>
<feColorMatrix type="matrix" values="0 0 0 0 0.982298 0 0 0 0 1 0 0 0 0 0.731944 0 0 0 1 0"/>
<feBlend mode="normal" in2="BackgroundImageFix" result="effect1_dropShadow_290_300"/>
<feBlend mode="normal" in="SourceGraphic" in2="effect1_dropShadow_290_300" result="shape"/>
</filter>
</defs>
</svg>
