<svg width="992" height="159" viewBox="0 0 992 159" fill="none" xmlns="http://www.w3.org/2000/svg">
<path d="M27.9058 57.864C23.9218 57.864 20.2498 57.24 16.8898 55.992C13.5778 54.696 10.6738 52.872 8.17775 50.52C5.72975 48.168 3.80975 45.408 2.41775 42.24C1.07375 39.072 0.40175 35.592 0.40175 31.8C0.40175 28.008 1.07375 24.528 2.41775 21.36C3.80975 18.192 5.75375 15.432 8.24975 13.08C10.7458 10.728 13.6738 8.928 17.0338 7.68C20.3938 6.384 24.0898 5.736 28.1218 5.736C32.5858 5.736 36.5938 6.48 40.1458 7.968C43.7458 9.456 46.7698 11.616 49.2178 14.448L41.7298 21.36C39.9058 19.44 37.9138 18.024 35.7538 17.112C33.5938 16.152 31.2418 15.672 28.6978 15.672C26.2498 15.672 24.0178 16.056 22.0018 16.824C19.9858 17.592 18.2338 18.696 16.7458 20.136C15.3058 21.576 14.1778 23.28 13.3618 25.248C12.5938 27.216 12.2098 29.4 12.2098 31.8C12.2098 34.152 12.5938 36.312 13.3618 38.28C14.1778 40.248 15.3058 41.976 16.7458 43.464C18.2338 44.904 19.9618 46.008 21.9298 46.776C23.9458 47.544 26.1538 47.928 28.5538 47.928C30.8578 47.928 33.0898 47.568 35.2498 46.848C37.4578 46.08 39.5938 44.808 41.6578 43.032L48.2818 51.456C45.5458 53.52 42.3538 55.104 38.7058 56.208C35.1058 57.312 31.5058 57.864 27.9058 57.864ZM37.6258 49.944V31.008H48.2818V51.456L37.6258 49.944ZM73.9486 57.576C69.5326 57.576 65.6446 56.712 62.2846 54.984C58.9726 53.256 56.4046 50.904 54.5806 47.928C52.7566 44.904 51.8446 41.472 51.8446 37.632C51.8446 33.744 52.7326 30.312 54.5086 27.336C56.3326 24.312 58.8046 21.96 61.9246 20.28C65.0446 18.552 68.5726 17.688 72.5086 17.688C76.3006 17.688 79.7086 18.504 82.7326 20.136C85.8046 21.72 88.2286 24.024 90.0046 27.048C91.7806 30.024 92.6686 33.6 92.6686 37.776C92.6686 38.208 92.6446 38.712 92.5966 39.288C92.5486 39.816 92.5006 40.32 92.4526 40.8H60.9886V34.248H86.5486L82.2286 36.192C82.2286 34.176 81.8206 32.424 81.0046 30.936C80.1886 29.448 79.0606 28.296 77.6206 27.48C76.1806 26.616 74.5006 26.184 72.5806 26.184C70.6606 26.184 68.9566 26.616 67.4686 27.48C66.0286 28.296 64.9006 29.472 64.0846 31.008C63.2686 32.496 62.8606 34.272 62.8606 36.336V38.064C62.8606 40.176 63.3166 42.048 64.2286 43.68C65.1886 45.264 66.5086 46.488 68.1886 47.352C69.9166 48.168 71.9326 48.576 74.2366 48.576C76.3006 48.576 78.1006 48.264 79.6366 47.64C81.2206 47.016 82.6606 46.08 83.9566 44.832L89.9326 51.312C88.1566 53.328 85.9246 54.888 83.2366 55.992C80.5486 57.048 77.4526 57.576 73.9486 57.576ZM112.387 57.576C107.827 57.576 104.275 56.424 101.731 54.12C99.1865 51.768 97.9145 48.288 97.9145 43.68V9.696H109.147V43.536C109.147 45.168 109.579 46.44 110.443 47.352C111.307 48.216 112.483 48.648 113.971 48.648C115.747 48.648 117.259 48.168 118.507 47.208L121.531 55.128C120.379 55.944 118.987 56.568 117.355 57C115.771 57.384 114.115 57.576 112.387 57.576ZM91.9385 27.768V19.128H118.795V27.768H91.9385ZM139.232 57.576C134.672 57.576 131.12 56.424 128.576 54.12C126.032 51.768 124.76 48.288 124.76 43.68V9.696H135.992V43.536C135.992 45.168 136.424 46.44 137.288 47.352C138.152 48.216 139.328 48.648 140.816 48.648C142.592 48.648 144.104 48.168 145.352 47.208L148.376 55.128C147.224 55.944 145.832 56.568 144.2 57C142.616 57.384 140.96 57.576 139.232 57.576ZM118.784 27.768V19.128H145.64V27.768H118.784ZM151.081 57V18.264H162.313V57H151.081ZM156.697 12.864C154.633 12.864 152.953 12.264 151.657 11.064C150.361 9.864 149.713 8.376 149.713 6.6C149.713 4.824 150.361 3.336 151.657 2.136C152.953 0.935997 154.633 0.335996 156.697 0.335996C158.761 0.335996 160.441 0.911997 161.737 2.064C163.033 3.168 163.681 4.608 163.681 6.384C163.681 8.256 163.033 9.816 161.737 11.064C160.489 12.264 158.809 12.864 156.697 12.864ZM192.681 17.688C195.753 17.688 198.489 18.312 200.889 19.56C203.337 20.76 205.257 22.632 206.649 25.176C208.041 27.672 208.737 30.888 208.737 34.824V57H197.505V36.552C197.505 33.432 196.809 31.128 195.417 29.64C194.073 28.152 192.153 27.408 189.657 27.408C187.881 27.408 186.273 27.792 184.833 28.56C183.441 29.28 182.337 30.408 181.521 31.944C180.753 33.48 180.369 35.448 180.369 37.848V57H169.137V18.264H179.865V28.992L177.849 25.752C179.241 23.16 181.233 21.168 183.825 19.776C186.417 18.384 189.369 17.688 192.681 17.688ZM233.816 71.544C230.168 71.544 226.64 71.088 223.232 70.176C219.872 69.312 217.064 67.992 214.808 66.216L219.272 58.152C220.904 59.496 222.968 60.552 225.464 61.32C228.008 62.136 230.504 62.544 232.952 62.544C236.936 62.544 239.816 61.656 241.592 59.88C243.416 58.104 244.328 55.464 244.328 51.96V46.128L245.048 36.408L244.904 26.616V18.264H255.56V50.52C255.56 57.72 253.688 63.024 249.944 66.432C246.2 69.84 240.824 71.544 233.816 71.544ZM232.088 55.128C228.488 55.128 225.224 54.36 222.296 52.824C219.416 51.24 217.088 49.056 215.312 46.272C213.584 43.44 212.72 40.152 212.72 36.408C212.72 32.616 213.584 29.328 215.312 26.544C217.088 23.712 219.416 21.528 222.296 19.992C225.224 18.456 228.488 17.688 232.088 17.688C235.352 17.688 238.232 18.36 240.728 19.704C243.224 21 245.168 23.04 246.56 25.824C247.952 28.56 248.648 32.088 248.648 36.408C248.648 40.68 247.952 44.208 246.56 46.992C245.168 49.728 243.224 51.768 240.728 53.112C238.232 54.456 235.352 55.128 232.088 55.128ZM234.32 45.912C236.288 45.912 238.04 45.528 239.576 44.76C241.112 43.944 242.312 42.816 243.176 41.376C244.04 39.936 244.472 38.28 244.472 36.408C244.472 34.488 244.04 32.832 243.176 31.44C242.312 30 241.112 28.896 239.576 28.128C238.04 27.312 236.288 26.904 234.32 26.904C232.352 26.904 230.6 27.312 229.064 28.128C227.528 28.896 226.304 30 225.392 31.44C224.528 32.832 224.096 34.488 224.096 36.408C224.096 38.28 224.528 39.936 225.392 41.376C226.304 42.816 227.528 43.944 229.064 44.76C230.6 45.528 232.352 45.912 234.32 45.912ZM302.964 57V49.44L302.244 47.784V34.248C302.244 31.848 301.5 29.976 300.012 28.632C298.572 27.288 296.34 26.616 293.316 26.616C291.252 26.616 289.212 26.952 287.196 27.624C285.228 28.248 283.548 29.112 282.156 30.216L278.124 22.368C280.236 20.88 282.78 19.728 285.756 18.912C288.732 18.096 291.756 17.688 294.828 17.688C300.732 17.688 305.316 19.08 308.58 21.864C311.844 24.648 313.476 28.992 313.476 34.896V57H302.964ZM291.156 57.576C288.132 57.576 285.54 57.072 283.38 56.064C281.22 55.008 279.564 53.592 278.412 51.816C277.26 50.04 276.684 48.048 276.684 45.84C276.684 43.536 277.236 41.52 278.34 39.792C279.492 38.064 281.292 36.72 283.74 35.76C286.188 34.752 289.38 34.248 293.316 34.248H303.612V40.8H294.54C291.9 40.8 290.076 41.232 289.068 42.096C288.108 42.96 287.628 44.04 287.628 45.336C287.628 46.776 288.18 47.928 289.284 48.792C290.436 49.608 291.996 50.016 293.964 50.016C295.836 50.016 297.516 49.584 299.004 48.72C300.492 47.808 301.572 46.488 302.244 44.76L303.972 49.944C303.156 52.44 301.668 54.336 299.508 55.632C297.348 56.928 294.564 57.576 291.156 57.576ZM343.586 17.688C346.658 17.688 349.394 18.312 351.794 19.56C354.242 20.76 356.162 22.632 357.554 25.176C358.946 27.672 359.642 30.888 359.642 34.824V57H348.41V36.552C348.41 33.432 347.714 31.128 346.322 29.64C344.978 28.152 343.058 27.408 340.562 27.408C338.786 27.408 337.178 27.792 335.738 28.56C334.346 29.28 333.242 30.408 332.426 31.944C331.658 33.48 331.274 35.448 331.274 37.848V57H320.042V18.264H330.77V28.992L328.754 25.752C330.146 23.16 332.138 21.168 334.73 19.776C337.322 18.384 340.274 17.688 343.586 17.688ZM383.014 57V18.264H394.246V57H383.014ZM388.63 12.864C386.566 12.864 384.886 12.264 383.59 11.064C382.294 9.864 381.646 8.376 381.646 6.6C381.646 4.824 382.294 3.336 383.59 2.136C384.886 0.935997 386.566 0.335996 388.63 0.335996C390.694 0.335996 392.374 0.911997 393.67 2.064C394.966 3.168 395.614 4.608 395.614 6.384C395.614 8.256 394.966 9.816 393.67 11.064C392.422 12.264 390.742 12.864 388.63 12.864ZM424.614 17.688C427.686 17.688 430.422 18.312 432.822 19.56C435.27 20.76 437.19 22.632 438.582 25.176C439.974 27.672 440.67 30.888 440.67 34.824V57H429.438V36.552C429.438 33.432 428.742 31.128 427.35 29.64C426.006 28.152 424.086 27.408 421.59 27.408C419.814 27.408 418.206 27.792 416.766 28.56C415.374 29.28 414.27 30.408 413.454 31.944C412.686 33.48 412.302 35.448 412.302 37.848V57H401.07V18.264H411.798V28.992L409.782 25.752C411.174 23.16 413.166 21.168 415.758 19.776C418.35 18.384 421.302 17.688 424.614 17.688ZM463.091 57.576C458.531 57.576 454.979 56.424 452.435 54.12C449.891 51.768 448.619 48.288 448.619 43.68V9.696H459.851V43.536C459.851 45.168 460.283 46.44 461.147 47.352C462.011 48.216 463.187 48.648 464.675 48.648C466.451 48.648 467.963 48.168 469.211 47.208L472.235 55.128C471.083 55.944 469.691 56.568 468.059 57C466.475 57.384 464.819 57.576 463.091 57.576ZM442.643 27.768V19.128H469.499V27.768H442.643ZM492.969 57.576C488.553 57.576 484.665 56.712 481.305 54.984C477.993 53.256 475.425 50.904 473.601 47.928C471.777 44.904 470.865 41.472 470.865 37.632C470.865 33.744 471.753 30.312 473.529 27.336C475.353 24.312 477.825 21.96 480.945 20.28C484.065 18.552 487.593 17.688 491.529 17.688C495.321 17.688 498.729 18.504 501.753 20.136C504.825 21.72 507.249 24.024 509.025 27.048C510.801 30.024 511.689 33.6 511.689 37.776C511.689 38.208 511.665 38.712 511.617 39.288C511.569 39.816 511.521 40.32 511.473 40.8H480.009V34.248H505.569L501.249 36.192C501.249 34.176 500.841 32.424 500.025 30.936C499.209 29.448 498.081 28.296 496.641 27.48C495.201 26.616 493.521 26.184 491.601 26.184C489.681 26.184 487.977 26.616 486.489 27.48C485.049 28.296 483.921 29.472 483.105 31.008C482.289 32.496 481.881 34.272 481.881 36.336V38.064C481.881 40.176 482.337 42.048 483.249 43.68C484.209 45.264 485.529 46.488 487.209 47.352C488.937 48.168 490.953 48.576 493.257 48.576C495.321 48.576 497.121 48.264 498.657 47.64C500.241 47.016 501.681 46.08 502.977 44.832L508.953 51.312C507.177 53.328 504.945 54.888 502.257 55.992C499.569 57.048 496.473 57.576 492.969 57.576ZM515.567 57V18.264H526.295V29.208L524.783 26.04C525.935 23.304 527.783 21.24 530.327 19.848C532.871 18.408 535.967 17.688 539.615 17.688V28.056C539.135 28.008 538.703 27.984 538.319 27.984C537.935 27.936 537.527 27.912 537.095 27.912C534.023 27.912 531.527 28.8 529.607 30.576C527.735 32.304 526.799 35.016 526.799 38.712V57H515.567ZM566.308 17.688C569.38 17.688 572.116 18.312 574.516 19.56C576.964 20.76 578.884 22.632 580.276 25.176C581.668 27.672 582.364 30.888 582.364 34.824V57H571.132V36.552C571.132 33.432 570.436 31.128 569.044 29.64C567.7 28.152 565.78 27.408 563.284 27.408C561.508 27.408 559.9 27.792 558.46 28.56C557.068 29.28 555.964 30.408 555.148 31.944C554.38 33.48 553.996 35.448 553.996 37.848V57H542.764V18.264H553.492V28.992L551.476 25.752C552.868 23.16 554.86 21.168 557.452 19.776C560.044 18.384 562.996 17.688 566.308 17.688ZM601.977 57.576C598.665 57.576 595.473 57.192 592.401 56.424C589.377 55.608 586.977 54.6 585.201 53.4L588.945 45.336C590.721 46.44 592.809 47.352 595.209 48.072C597.657 48.744 600.057 49.08 602.409 49.08C605.001 49.08 606.825 48.768 607.881 48.144C608.985 47.52 609.537 46.656 609.537 45.552C609.537 44.64 609.105 43.968 608.241 43.536C607.425 43.056 606.321 42.696 604.929 42.456C603.537 42.216 602.001 41.976 600.321 41.736C598.689 41.496 597.033 41.184 595.353 40.8C593.673 40.368 592.137 39.744 590.745 38.928C589.353 38.112 588.225 37.008 587.361 35.616C586.545 34.224 586.137 32.424 586.137 30.216C586.137 27.768 586.833 25.608 588.225 23.736C589.665 21.864 591.729 20.4 594.417 19.344C597.105 18.24 600.321 17.688 604.065 17.688C606.705 17.688 609.393 17.976 612.129 18.552C614.865 19.128 617.145 19.968 618.969 21.072L615.225 29.064C613.353 27.96 611.457 27.216 609.537 26.832C607.665 26.4 605.841 26.184 604.065 26.184C601.569 26.184 599.745 26.52 598.593 27.192C597.441 27.864 596.865 28.728 596.865 29.784C596.865 30.744 597.273 31.464 598.089 31.944C598.953 32.424 600.081 32.808 601.473 33.096C602.865 33.384 604.377 33.648 606.009 33.888C607.689 34.08 609.369 34.392 611.049 34.824C612.729 35.256 614.241 35.88 615.585 36.696C616.977 37.464 618.105 38.544 618.969 39.936C619.833 41.28 620.265 43.056 620.265 45.264C620.265 47.664 619.545 49.8 618.105 51.672C616.665 53.496 614.577 54.936 611.841 55.992C609.153 57.048 605.865 57.576 601.977 57.576ZM647.139 17.688C650.211 17.688 652.947 18.312 655.347 19.56C657.795 20.76 659.715 22.632 661.107 25.176C662.499 27.672 663.195 30.888 663.195 34.824V57H651.963V36.552C651.963 33.432 651.267 31.128 649.875 29.64C648.531 28.152 646.611 27.408 644.115 27.408C642.339 27.408 640.731 27.792 639.291 28.56C637.899 29.28 636.795 30.408 635.979 31.944C635.211 33.48 634.827 35.448 634.827 37.848V57H623.595V3.576H634.827V28.992L632.307 25.752C633.699 23.16 635.691 21.168 638.283 19.776C640.875 18.384 643.827 17.688 647.139 17.688ZM669.776 57V18.264H681.008V57H669.776ZM675.392 12.864C673.328 12.864 671.648 12.264 670.352 11.064C669.056 9.864 668.408 8.376 668.408 6.6C668.408 4.824 669.056 3.336 670.352 2.136C671.648 0.935997 673.328 0.335996 675.392 0.335996C677.456 0.335996 679.136 0.911997 680.432 2.064C681.728 3.168 682.376 4.608 682.376 6.384C682.376 8.256 681.728 9.816 680.432 11.064C679.184 12.264 677.504 12.864 675.392 12.864ZM710.728 57.576C707.464 57.576 704.608 56.856 702.16 55.416C699.712 53.976 697.792 51.792 696.4 48.864C695.056 45.888 694.384 42.144 694.384 37.632C694.384 33.072 695.032 29.328 696.328 26.4C697.624 23.472 699.496 21.288 701.944 19.848C704.392 18.408 707.32 17.688 710.728 17.688C714.376 17.688 717.64 18.528 720.52 20.208C723.448 21.84 725.752 24.144 727.432 27.12C729.16 30.096 730.024 33.6 730.024 37.632C730.024 41.712 729.16 45.24 727.432 48.216C725.752 51.192 723.448 53.496 720.52 55.128C717.64 56.76 714.376 57.576 710.728 57.576ZM687.832 70.968V18.264H698.56V26.184L698.344 37.704L699.064 49.152V70.968H687.832ZM708.784 48.36C710.656 48.36 712.312 47.928 713.752 47.064C715.24 46.2 716.416 44.976 717.28 43.392C718.192 41.76 718.648 39.84 718.648 37.632C718.648 35.376 718.192 33.456 717.28 31.872C716.416 30.288 715.24 29.064 713.752 28.2C712.312 27.336 710.656 26.904 708.784 26.904C706.912 26.904 705.232 27.336 703.744 28.2C702.256 29.064 701.08 30.288 700.216 31.872C699.352 33.456 698.92 35.376 698.92 37.632C698.92 39.84 699.352 41.76 700.216 43.392C701.08 44.976 702.256 46.2 703.744 47.064C705.232 47.928 706.912 48.36 708.784 48.36ZM750.734 57V18.264H761.966V57H750.734ZM756.35 12.864C754.286 12.864 752.606 12.264 751.31 11.064C750.014 9.864 749.366 8.376 749.366 6.6C749.366 4.824 750.014 3.336 751.31 2.136C752.606 0.935997 754.286 0.335996 756.35 0.335996C758.414 0.335996 760.094 0.911997 761.39 2.064C762.686 3.168 763.334 4.608 763.334 6.384C763.334 8.256 762.686 9.816 761.39 11.064C760.142 12.264 758.462 12.864 756.35 12.864ZM781.822 57.576C778.51 57.576 775.318 57.192 772.246 56.424C769.222 55.608 766.822 54.6 765.046 53.4L768.79 45.336C770.566 46.44 772.654 47.352 775.054 48.072C777.502 48.744 779.902 49.08 782.254 49.08C784.846 49.08 786.67 48.768 787.726 48.144C788.83 47.52 789.382 46.656 789.382 45.552C789.382 44.64 788.95 43.968 788.086 43.536C787.27 43.056 786.166 42.696 784.774 42.456C783.382 42.216 781.846 41.976 780.166 41.736C778.534 41.496 776.878 41.184 775.198 40.8C773.518 40.368 771.982 39.744 770.59 38.928C769.198 38.112 768.07 37.008 767.206 35.616C766.39 34.224 765.982 32.424 765.982 30.216C765.982 27.768 766.678 25.608 768.07 23.736C769.51 21.864 771.574 20.4 774.262 19.344C776.95 18.24 780.166 17.688 783.91 17.688C786.55 17.688 789.238 17.976 791.974 18.552C794.71 19.128 796.99 19.968 798.814 21.072L795.07 29.064C793.198 27.96 791.302 27.216 789.382 26.832C787.51 26.4 785.686 26.184 783.91 26.184C781.414 26.184 779.59 26.52 778.438 27.192C777.286 27.864 776.71 28.728 776.71 29.784C776.71 30.744 777.118 31.464 777.934 31.944C778.798 32.424 779.926 32.808 781.318 33.096C782.71 33.384 784.222 33.648 785.854 33.888C787.534 34.08 789.214 34.392 790.894 34.824C792.574 35.256 794.086 35.88 795.43 36.696C796.822 37.464 797.95 38.544 798.814 39.936C799.678 41.28 800.11 43.056 800.11 45.264C800.11 47.664 799.39 49.8 797.95 51.672C796.51 53.496 794.422 54.936 791.686 55.992C788.998 57.048 785.71 57.576 781.822 57.576ZM843.775 17.688C846.847 17.688 849.583 18.312 851.983 19.56C854.431 20.76 856.351 22.632 857.743 25.176C859.135 27.672 859.831 30.888 859.831 34.824V57H848.599V36.552C848.599 33.432 847.903 31.128 846.511 29.64C845.167 28.152 843.247 27.408 840.751 27.408C838.975 27.408 837.367 27.792 835.927 28.56C834.535 29.28 833.431 30.408 832.615 31.944C831.847 33.48 831.463 35.448 831.463 37.848V57H820.231V3.576H831.463V28.992L828.943 25.752C830.335 23.16 832.327 21.168 834.919 19.776C837.511 18.384 840.463 17.688 843.775 17.688ZM890.172 57V49.44L889.452 47.784V34.248C889.452 31.848 888.708 29.976 887.22 28.632C885.78 27.288 883.548 26.616 880.524 26.616C878.46 26.616 876.42 26.952 874.404 27.624C872.436 28.248 870.756 29.112 869.364 30.216L865.332 22.368C867.444 20.88 869.988 19.728 872.964 18.912C875.94 18.096 878.964 17.688 882.036 17.688C887.94 17.688 892.524 19.08 895.788 21.864C899.052 24.648 900.684 28.992 900.684 34.896V57H890.172ZM878.364 57.576C875.34 57.576 872.748 57.072 870.588 56.064C868.428 55.008 866.772 53.592 865.62 51.816C864.468 50.04 863.892 48.048 863.892 45.84C863.892 43.536 864.444 41.52 865.548 39.792C866.7 38.064 868.5 36.72 870.948 35.76C873.396 34.752 876.588 34.248 880.524 34.248H890.82V40.8H881.748C879.108 40.8 877.284 41.232 876.276 42.096C875.316 42.96 874.836 44.04 874.836 45.336C874.836 46.776 875.388 47.928 876.492 48.792C877.644 49.608 879.204 50.016 881.172 50.016C883.044 50.016 884.724 49.584 886.212 48.72C887.7 47.808 888.78 46.488 889.452 44.76L891.18 49.944C890.364 52.44 888.876 54.336 886.716 55.632C884.556 56.928 881.772 57.576 878.364 57.576ZM907.25 57V18.264H917.978V29.208L916.466 26.04C917.618 23.304 919.466 21.24 922.01 19.848C924.554 18.408 927.65 17.688 931.298 17.688V28.056C930.818 28.008 930.386 27.984 930.002 27.984C929.618 27.936 929.21 27.912 928.778 27.912C925.706 27.912 923.21 28.8 921.29 30.576C919.418 32.304 918.482 35.016 918.482 38.712V57H907.25ZM950.727 57.576C947.079 57.576 943.791 56.76 940.863 55.128C937.935 53.448 935.607 51.12 933.879 48.144C932.199 45.168 931.359 41.664 931.359 37.632C931.359 33.552 932.199 30.024 933.879 27.048C935.607 24.072 937.935 21.768 940.863 20.136C943.791 18.504 947.079 17.688 950.727 17.688C953.991 17.688 956.847 18.408 959.295 19.848C961.743 21.288 963.639 23.472 964.983 26.4C966.327 29.328 966.999 33.072 966.999 37.632C966.999 42.144 966.351 45.888 965.055 48.864C963.759 51.792 961.887 53.976 959.439 55.416C957.039 56.856 954.135 57.576 950.727 57.576ZM952.671 48.36C954.495 48.36 956.151 47.928 957.639 47.064C959.127 46.2 960.303 44.976 961.167 43.392C962.079 41.76 962.535 39.84 962.535 37.632C962.535 35.376 962.079 33.456 961.167 31.872C960.303 30.288 959.127 29.064 957.639 28.2C956.151 27.336 954.495 26.904 952.671 26.904C950.799 26.904 949.119 27.336 947.631 28.2C946.143 29.064 944.943 30.288 944.031 31.872C943.167 33.456 942.735 35.376 942.735 37.632C942.735 39.84 943.167 41.76 944.031 43.392C944.943 44.976 946.143 46.2 947.631 47.064C949.119 47.928 950.799 48.36 952.671 48.36ZM962.823 57V49.08L963.039 37.56L962.319 26.112V3.576H973.551V57H962.823ZM984.594 57.576C982.674 57.576 981.018 56.928 979.626 55.632C978.282 54.288 977.61 52.584 977.61 50.52C977.61 48.456 978.282 46.8 979.626 45.552C981.018 44.256 982.674 43.608 984.594 43.608C986.562 43.608 988.218 44.256 989.562 45.552C990.906 46.8 991.578 48.456 991.578 50.52C991.578 52.584 990.906 54.288 989.562 55.632C988.218 56.928 986.562 57.576 984.594 57.576Z" fill="#1C1A29"/>
<path d="M117.359 145L100.871 94.6H112.967L127.295 139.24H121.247L136.223 94.6H147.023L161.423 139.24H155.591L170.279 94.6H181.439L164.951 145H152.423L139.679 105.832H142.991L129.887 145H117.359ZM199.899 145.576C195.483 145.576 191.595 144.712 188.235 142.984C184.923 141.256 182.355 138.904 180.531 135.928C178.707 132.904 177.795 129.472 177.795 125.632C177.795 121.744 178.683 118.312 180.459 115.336C182.283 112.312 184.755 109.96 187.875 108.28C190.995 106.552 194.523 105.688 198.459 105.688C202.251 105.688 205.659 106.504 208.683 108.136C211.755 109.72 214.179 112.024 215.955 115.048C217.731 118.024 218.619 121.6 218.619 125.776C218.619 126.208 218.595 126.712 218.547 127.288C218.499 127.816 218.451 128.32 218.403 128.8H186.939V122.248H212.499L208.179 124.192C208.179 122.176 207.771 120.424 206.955 118.936C206.139 117.448 205.011 116.296 203.571 115.48C202.131 114.616 200.451 114.184 198.531 114.184C196.611 114.184 194.907 114.616 193.419 115.48C191.979 116.296 190.851 117.472 190.035 119.008C189.219 120.496 188.811 122.272 188.811 124.336V126.064C188.811 128.176 189.267 130.048 190.179 131.68C191.139 133.264 192.459 134.488 194.139 135.352C195.867 136.168 197.883 136.576 200.187 136.576C202.251 136.576 204.051 136.264 205.587 135.64C207.171 135.016 208.611 134.08 209.907 132.832L215.883 139.312C214.107 141.328 211.875 142.888 209.187 143.992C206.499 145.048 203.403 145.576 199.899 145.576ZM220.694 115.48L225.446 98.2L227.03 104.752C224.966 104.752 223.262 104.152 221.918 102.952C220.622 101.704 219.974 100.024 219.974 97.912C219.974 95.848 220.646 94.192 221.99 92.944C223.334 91.648 224.99 91 226.958 91C228.974 91 230.63 91.648 231.926 92.944C233.222 94.192 233.87 95.848 233.87 97.912C233.87 98.536 233.822 99.16 233.726 99.784C233.678 100.36 233.51 101.056 233.222 101.872C232.982 102.688 232.574 103.768 231.998 105.112L227.822 115.48H220.694ZM237.882 145V106.264H248.61V117.208L247.098 114.04C248.25 111.304 250.098 109.24 252.642 107.848C255.186 106.408 258.282 105.688 261.93 105.688V116.056C261.45 116.008 261.018 115.984 260.634 115.984C260.25 115.936 259.842 115.912 259.41 115.912C256.338 115.912 253.842 116.8 251.922 118.576C250.05 120.304 249.114 123.016 249.114 126.712V145H237.882ZM283.951 145.576C279.535 145.576 275.647 144.712 272.287 142.984C268.975 141.256 266.407 138.904 264.583 135.928C262.759 132.904 261.847 129.472 261.847 125.632C261.847 121.744 262.735 118.312 264.511 115.336C266.335 112.312 268.807 109.96 271.927 108.28C275.047 106.552 278.575 105.688 282.511 105.688C286.303 105.688 289.711 106.504 292.735 108.136C295.807 109.72 298.231 112.024 300.007 115.048C301.783 118.024 302.671 121.6 302.671 125.776C302.671 126.208 302.647 126.712 302.599 127.288C302.551 127.816 302.503 128.32 302.455 128.8H270.991V122.248H296.551L292.231 124.192C292.231 122.176 291.823 120.424 291.007 118.936C290.191 117.448 289.063 116.296 287.623 115.48C286.183 114.616 284.503 114.184 282.583 114.184C280.663 114.184 278.959 114.616 277.471 115.48C276.031 116.296 274.903 117.472 274.087 119.008C273.271 120.496 272.863 122.272 272.863 124.336V126.064C272.863 128.176 273.319 130.048 274.231 131.68C275.191 133.264 276.511 134.488 278.191 135.352C279.919 136.168 281.935 136.576 284.239 136.576C286.303 136.576 288.103 136.264 289.639 135.64C291.223 135.016 292.663 134.08 293.959 132.832L299.935 139.312C298.159 141.328 295.927 142.888 293.239 143.992C290.551 145.048 287.455 145.576 283.951 145.576ZM346.883 105.688C349.955 105.688 352.691 106.312 355.091 107.56C357.539 108.76 359.459 110.632 360.851 113.176C362.243 115.672 362.939 118.888 362.939 122.824V145H351.707V124.552C351.707 121.432 351.011 119.128 349.619 117.64C348.275 116.152 346.355 115.408 343.859 115.408C342.083 115.408 340.475 115.792 339.035 116.56C337.643 117.28 336.539 118.408 335.723 119.944C334.955 121.48 334.571 123.448 334.571 125.848V145H323.339V91.576H334.571V116.992L332.051 113.752C333.443 111.16 335.435 109.168 338.027 107.776C340.619 106.384 343.571 105.688 346.883 105.688ZM389.026 145.576C384.61 145.576 380.722 144.712 377.362 142.984C374.05 141.256 371.482 138.904 369.658 135.928C367.834 132.904 366.922 129.472 366.922 125.632C366.922 121.744 367.81 118.312 369.586 115.336C371.41 112.312 373.882 109.96 377.002 108.28C380.122 106.552 383.65 105.688 387.586 105.688C391.378 105.688 394.786 106.504 397.81 108.136C400.882 109.72 403.306 112.024 405.082 115.048C406.858 118.024 407.746 121.6 407.746 125.776C407.746 126.208 407.722 126.712 407.674 127.288C407.626 127.816 407.578 128.32 407.53 128.8H376.066V122.248H401.626L397.306 124.192C397.306 122.176 396.898 120.424 396.082 118.936C395.266 117.448 394.138 116.296 392.698 115.48C391.258 114.616 389.578 114.184 387.658 114.184C385.738 114.184 384.034 114.616 382.546 115.48C381.106 116.296 379.978 117.472 379.162 119.008C378.346 120.496 377.938 122.272 377.938 124.336V126.064C377.938 128.176 378.394 130.048 379.306 131.68C380.266 133.264 381.586 134.488 383.266 135.352C384.994 136.168 387.01 136.576 389.314 136.576C391.378 136.576 393.178 136.264 394.714 135.64C396.298 135.016 397.738 134.08 399.034 132.832L405.01 139.312C403.234 141.328 401.002 142.888 398.314 143.992C395.626 145.048 392.53 145.576 389.026 145.576ZM411.624 145V106.264H422.352V117.208L420.84 114.04C421.992 111.304 423.84 109.24 426.384 107.848C428.928 106.408 432.024 105.688 435.672 105.688V116.056C435.192 116.008 434.76 115.984 434.376 115.984C433.992 115.936 433.584 115.912 433.152 115.912C430.08 115.912 427.584 116.8 425.664 118.576C423.792 120.304 422.856 123.016 422.856 126.712V145H411.624ZM457.693 145.576C453.277 145.576 449.389 144.712 446.029 142.984C442.717 141.256 440.149 138.904 438.325 135.928C436.501 132.904 435.589 129.472 435.589 125.632C435.589 121.744 436.477 118.312 438.253 115.336C440.077 112.312 442.549 109.96 445.669 108.28C448.789 106.552 452.317 105.688 456.253 105.688C460.045 105.688 463.453 106.504 466.477 108.136C469.549 109.72 471.973 112.024 473.749 115.048C475.525 118.024 476.413 121.6 476.413 125.776C476.413 126.208 476.389 126.712 476.341 127.288C476.293 127.816 476.245 128.32 476.197 128.8H444.733V122.248H470.293L465.973 124.192C465.973 122.176 465.565 120.424 464.749 118.936C463.933 117.448 462.805 116.296 461.365 115.48C459.925 114.616 458.245 114.184 456.325 114.184C454.405 114.184 452.701 114.616 451.213 115.48C449.773 116.296 448.645 117.472 447.829 119.008C447.013 120.496 446.605 122.272 446.605 124.336V126.064C446.605 128.176 447.061 130.048 447.973 131.68C448.933 133.264 450.253 134.488 451.933 135.352C453.661 136.168 455.677 136.576 457.981 136.576C460.045 136.576 461.845 136.264 463.381 135.64C464.965 135.016 466.405 134.08 467.701 132.832L473.677 139.312C471.901 141.328 469.669 142.888 466.981 143.992C464.293 145.048 461.197 145.576 457.693 145.576ZM512.922 145.576C508.362 145.576 504.81 144.424 502.266 142.12C499.722 139.768 498.45 136.288 498.45 131.68V97.696H509.682V131.536C509.682 133.168 510.114 134.44 510.978 135.352C511.842 136.216 513.018 136.648 514.506 136.648C516.282 136.648 517.794 136.168 519.042 135.208L522.066 143.128C520.914 143.944 519.522 144.568 517.89 145C516.306 145.384 514.65 145.576 512.922 145.576ZM492.474 115.768V107.128H519.33V115.768H492.474ZM542.007 145.576C537.879 145.576 534.207 144.712 530.991 142.984C527.823 141.256 525.303 138.904 523.431 135.928C521.607 132.904 520.695 129.472 520.695 125.632C520.695 121.744 521.607 118.312 523.431 115.336C525.303 112.312 527.823 109.96 530.991 108.28C534.207 106.552 537.879 105.688 542.007 105.688C546.087 105.688 549.735 106.552 552.951 108.28C556.167 109.96 558.687 112.288 560.511 115.264C562.335 118.24 563.247 121.696 563.247 125.632C563.247 129.472 562.335 132.904 560.511 135.928C558.687 138.904 556.167 141.256 552.951 142.984C549.735 144.712 546.087 145.576 542.007 145.576ZM542.007 136.36C543.879 136.36 545.559 135.928 547.047 135.064C548.535 134.2 549.711 132.976 550.575 131.392C551.439 129.76 551.871 127.84 551.871 125.632C551.871 123.376 551.439 121.456 550.575 119.872C549.711 118.288 548.535 117.064 547.047 116.2C545.559 115.336 543.879 114.904 542.007 114.904C540.135 114.904 538.455 115.336 536.967 116.2C535.479 117.064 534.279 118.288 533.367 119.872C532.503 121.456 532.071 123.376 532.071 125.632C532.071 127.84 532.503 129.76 533.367 131.392C534.279 132.976 535.479 134.2 536.967 135.064C538.455 135.928 540.135 136.36 542.007 136.36ZM607.49 105.688C610.562 105.688 613.298 106.312 615.698 107.56C618.146 108.76 620.066 110.632 621.458 113.176C622.85 115.672 623.546 118.888 623.546 122.824V145H612.314V124.552C612.314 121.432 611.618 119.128 610.226 117.64C608.882 116.152 606.962 115.408 604.466 115.408C602.69 115.408 601.082 115.792 599.642 116.56C598.25 117.28 597.146 118.408 596.33 119.944C595.562 121.48 595.178 123.448 595.178 125.848V145H583.946V91.576H595.178V116.992L592.658 113.752C594.05 111.16 596.042 109.168 598.634 107.776C601.226 106.384 604.178 105.688 607.49 105.688ZM649.632 145.576C645.216 145.576 641.328 144.712 637.968 142.984C634.656 141.256 632.088 138.904 630.264 135.928C628.44 132.904 627.528 129.472 627.528 125.632C627.528 121.744 628.416 118.312 630.192 115.336C632.016 112.312 634.488 109.96 637.608 108.28C640.728 106.552 644.256 105.688 648.192 105.688C651.984 105.688 655.392 106.504 658.416 108.136C661.488 109.72 663.912 112.024 665.688 115.048C667.464 118.024 668.352 121.6 668.352 125.776C668.352 126.208 668.328 126.712 668.28 127.288C668.232 127.816 668.184 128.32 668.136 128.8H636.672V122.248H662.232L657.912 124.192C657.912 122.176 657.504 120.424 656.688 118.936C655.872 117.448 654.744 116.296 653.304 115.48C651.864 114.616 650.184 114.184 648.264 114.184C646.344 114.184 644.64 114.616 643.152 115.48C641.712 116.296 640.584 117.472 639.768 119.008C638.952 120.496 638.544 122.272 638.544 124.336V126.064C638.544 128.176 639 130.048 639.912 131.68C640.872 133.264 642.192 134.488 643.872 135.352C645.6 136.168 647.616 136.576 649.92 136.576C651.984 136.576 653.784 136.264 655.32 135.64C656.904 135.016 658.344 134.08 659.64 132.832L665.616 139.312C663.84 141.328 661.608 142.888 658.92 143.992C656.232 145.048 653.136 145.576 649.632 145.576ZM672.23 145V91.576H683.462V145H672.23ZM713.182 145.576C709.918 145.576 707.062 144.856 704.614 143.416C702.166 141.976 700.246 139.792 698.854 136.864C697.51 133.888 696.838 130.144 696.838 125.632C696.838 121.072 697.486 117.328 698.782 114.4C700.078 111.472 701.95 109.288 704.398 107.848C706.846 106.408 709.774 105.688 713.182 105.688C716.83 105.688 720.094 106.528 722.974 108.208C725.902 109.84 728.206 112.144 729.886 115.12C731.614 118.096 732.478 121.6 732.478 125.632C732.478 129.712 731.614 133.24 729.886 136.216C728.206 139.192 725.902 141.496 722.974 143.128C720.094 144.76 716.83 145.576 713.182 145.576ZM690.286 158.968V106.264H701.014V114.184L700.798 125.704L701.518 137.152V158.968H690.286ZM711.238 136.36C713.11 136.36 714.766 135.928 716.206 135.064C717.694 134.2 718.87 132.976 719.734 131.392C720.646 129.76 721.102 127.84 721.102 125.632C721.102 123.376 720.646 121.456 719.734 119.872C718.87 118.288 717.694 117.064 716.206 116.2C714.766 115.336 713.11 114.904 711.238 114.904C709.366 114.904 707.686 115.336 706.198 116.2C704.71 117.064 703.534 118.288 702.67 119.872C701.806 121.456 701.374 123.376 701.374 125.632C701.374 127.84 701.806 129.76 702.67 131.392C703.534 132.976 704.71 134.2 706.198 135.064C707.686 135.928 709.366 136.36 711.238 136.36ZM734.031 156.088L738.783 138.808L740.367 145.288C738.303 145.288 736.599 144.688 735.255 143.488C733.959 142.288 733.311 140.632 733.311 138.52C733.311 136.408 733.983 134.728 735.327 133.48C736.671 132.232 738.327 131.608 740.295 131.608C742.311 131.608 743.967 132.256 745.263 133.552C746.559 134.8 747.207 136.456 747.207 138.52C747.207 139.144 747.159 139.768 747.063 140.392C746.967 140.968 746.775 141.688 746.487 142.552C746.247 143.368 745.839 144.424 745.263 145.72L741.159 156.088H734.031ZM779.602 117.28H803.794V126.64H779.602V117.28ZM780.466 145H768.802V94.6H806.89V103.96H780.466V145ZM823.714 145V124.408L826.378 131.464L804.202 94.6H816.586L833.578 122.896H826.45L843.514 94.6H854.962L832.786 131.464L835.378 124.408V145H823.714ZM855.82 145V94.6H867.484V145H855.82ZM879.302 145.576C877.382 145.576 875.726 144.928 874.334 143.632C872.99 142.288 872.318 140.584 872.318 138.52C872.318 136.456 872.99 134.8 874.334 133.552C875.726 132.256 877.382 131.608 879.302 131.608C881.27 131.608 882.926 132.256 884.27 133.552C885.614 134.8 886.286 136.456 886.286 138.52C886.286 140.584 885.614 142.288 884.27 143.632C882.926 144.928 881.27 145.576 879.302 145.576Z" fill="#FFB706"/>
</svg>
