<svg width="412" height="58" viewBox="0 0 412 58" fill="none" xmlns="http://www.w3.org/2000/svg">
<g filter="url(#filter0_d_139_100)">
<rect x="4.75" y="0.75" width="402.5" height="48.5" rx="15.25" stroke="#229EBC" stroke-width="1.5" shape-rendering="crispEdges"/>
<path d="M46.7627 24.486H54.9027V25.872H46.7627V24.486ZM46.9387 31.592H56.2007V33H45.3107V17.6H55.8707V19.008H46.9387V31.592ZM74.1295 21.34C75.0682 21.34 75.8822 21.5233 76.5715 21.89C77.2755 22.242 77.8182 22.7847 78.1995 23.518C78.5955 24.2513 78.7935 25.1753 78.7935 26.29V33H77.2315V26.444C77.2315 25.2267 76.9382 24.31 76.3515 23.694C75.7795 23.0633 74.9655 22.748 73.9095 22.748C73.1175 22.748 72.4282 22.9167 71.8415 23.254C71.2695 23.5767 70.8222 24.0533 70.4995 24.684C70.1915 25.3 70.0375 26.048 70.0375 26.928V33H68.4755V26.444C68.4755 25.2267 68.1822 24.31 67.5955 23.694C67.0089 23.0633 66.1875 22.748 65.1315 22.748C64.3542 22.748 63.6722 22.9167 63.0855 23.254C62.4989 23.5767 62.0442 24.0533 61.7215 24.684C61.4135 25.3 61.2595 26.048 61.2595 26.928V33H59.6975V21.45H61.1935V24.574L60.9515 24.024C61.3035 23.188 61.8682 22.5353 62.6455 22.066C63.4375 21.582 64.3689 21.34 65.4395 21.34C66.5689 21.34 67.5295 21.626 68.3215 22.198C69.1135 22.7553 69.6269 23.5987 69.8615 24.728L69.2455 24.486C69.5829 23.5473 70.1769 22.792 71.0275 22.22C71.8929 21.6333 72.9269 21.34 74.1295 21.34ZM90.2676 33V30.448L90.2016 30.03V25.762C90.2016 24.7793 89.9229 24.024 89.3656 23.496C88.8229 22.968 88.0089 22.704 86.9236 22.704C86.1756 22.704 85.4642 22.8287 84.7896 23.078C84.1149 23.3273 83.5429 23.6573 83.0736 24.068L82.3696 22.902C82.9562 22.4033 83.6602 22.022 84.4816 21.758C85.3029 21.4793 86.1682 21.34 87.0776 21.34C88.5736 21.34 89.7249 21.714 90.5316 22.462C91.3529 23.1953 91.7636 24.3173 91.7636 25.828V33H90.2676ZM86.2856 33.11C85.4202 33.11 84.6649 32.9707 84.0196 32.692C83.3889 32.3987 82.9049 32.0027 82.5676 31.504C82.2302 30.9907 82.0616 30.404 82.0616 29.744C82.0616 29.1427 82.2009 28.6 82.4796 28.116C82.7729 27.6173 83.2422 27.2213 83.8876 26.928C84.5476 26.62 85.4276 26.466 86.5276 26.466H90.5096V27.632H86.5716C85.4569 27.632 84.6796 27.83 84.2396 28.226C83.8142 28.622 83.6016 29.1133 83.6016 29.7C83.6016 30.36 83.8582 30.888 84.3716 31.284C84.8849 31.68 85.6036 31.878 86.5276 31.878C87.4076 31.878 88.1629 31.68 88.7936 31.284C89.4389 30.8733 89.9082 30.2867 90.2016 29.524L90.5536 30.602C90.2602 31.3647 89.7469 31.9733 89.0136 32.428C88.2949 32.8827 87.3856 33.11 86.2856 33.11ZM96.0061 33V21.45H97.5681V33H96.0061ZM96.7981 18.898C96.4755 18.898 96.2041 18.788 95.9841 18.568C95.7641 18.348 95.6541 18.084 95.6541 17.776C95.6541 17.468 95.7641 17.2113 95.9841 17.006C96.2041 16.786 96.4755 16.676 96.7981 16.676C97.1208 16.676 97.3921 16.7787 97.6121 16.984C97.8321 17.1893 97.9421 17.446 97.9421 17.754C97.9421 18.0767 97.8321 18.348 97.6121 18.568C97.4068 18.788 97.1355 18.898 96.7981 18.898ZM101.914 33V16.676H103.476V33H101.914ZM111.446 33L118.486 17.6H120.092L127.132 33H125.416L118.948 18.546H119.608L113.14 33H111.446ZM114.218 28.886L114.702 27.566H123.656L124.14 28.886H114.218ZM133.84 33.11C132.74 33.11 131.75 32.8607 130.87 32.362C130.005 31.8633 129.323 31.174 128.824 30.294C128.326 29.3993 128.076 28.3727 128.076 27.214C128.076 26.0407 128.326 25.014 128.824 24.134C129.323 23.254 130.005 22.572 130.87 22.088C131.75 21.5893 132.74 21.34 133.84 21.34C134.852 21.34 135.754 21.5673 136.546 22.022C137.353 22.4767 137.991 23.144 138.46 24.024C138.944 24.8893 139.186 25.9527 139.186 27.214C139.186 28.4607 138.952 29.524 138.482 30.404C138.013 31.284 137.375 31.9587 136.568 32.428C135.776 32.8827 134.867 33.11 133.84 33.11ZM133.95 31.724C134.772 31.724 135.505 31.5407 136.15 31.174C136.81 30.7927 137.324 30.2647 137.69 29.59C138.072 28.9007 138.262 28.1087 138.262 27.214C138.262 26.3047 138.072 25.5127 137.69 24.838C137.324 24.1633 136.81 23.6427 136.15 23.276C135.505 22.8947 134.772 22.704 133.95 22.704C133.144 22.704 132.418 22.8947 131.772 23.276C131.127 23.6427 130.614 24.1633 130.232 24.838C129.851 25.5127 129.66 26.3047 129.66 27.214C129.66 28.1087 129.851 28.9007 130.232 29.59C130.614 30.2647 131.127 30.7927 131.772 31.174C132.418 31.5407 133.144 31.724 133.95 31.724ZM138.306 33V29.524L138.46 27.192L138.24 24.86V16.676H139.802V33H138.306ZM148.751 33.11C147.651 33.11 146.661 32.8607 145.781 32.362C144.915 31.8633 144.233 31.174 143.735 30.294C143.236 29.3993 142.987 28.3727 142.987 27.214C142.987 26.0407 143.236 25.014 143.735 24.134C144.233 23.254 144.915 22.572 145.781 22.088C146.661 21.5893 147.651 21.34 148.751 21.34C149.763 21.34 150.665 21.5673 151.457 22.022C152.263 22.4767 152.901 23.144 153.371 24.024C153.855 24.8893 154.097 25.9527 154.097 27.214C154.097 28.4607 153.862 29.524 153.393 30.404C152.923 31.284 152.285 31.9587 151.479 32.428C150.687 32.8827 149.777 33.11 148.751 33.11ZM148.861 31.724C149.682 31.724 150.415 31.5407 151.061 31.174C151.721 30.7927 152.234 30.2647 152.601 29.59C152.982 28.9007 153.173 28.1087 153.173 27.214C153.173 26.3047 152.982 25.5127 152.601 24.838C152.234 24.1633 151.721 23.6427 151.061 23.276C150.415 22.8947 149.682 22.704 148.861 22.704C148.054 22.704 147.328 22.8947 146.683 23.276C146.037 23.6427 145.524 24.1633 145.143 24.838C144.761 25.5127 144.571 26.3047 144.571 27.214C144.571 28.1087 144.761 28.9007 145.143 29.59C145.524 30.2647 146.037 30.7927 146.683 31.174C147.328 31.5407 148.054 31.724 148.861 31.724ZM153.217 33V29.524L153.371 27.192L153.151 24.86V16.676H154.713V33H153.217ZM159.063 33V21.45H160.559V24.596L160.405 24.046C160.727 23.166 161.27 22.4987 162.033 22.044C162.795 21.5747 163.741 21.34 164.871 21.34V22.858C164.812 22.858 164.753 22.858 164.695 22.858C164.636 22.8433 164.577 22.836 164.519 22.836C163.301 22.836 162.348 23.21 161.659 23.958C160.969 24.6913 160.625 25.74 160.625 27.104V33H159.063ZM172.52 33.11C171.317 33.11 170.261 32.8607 169.352 32.362C168.442 31.8487 167.731 31.152 167.218 30.272C166.704 29.3773 166.448 28.358 166.448 27.214C166.448 26.07 166.69 25.058 167.174 24.178C167.672 23.298 168.347 22.6087 169.198 22.11C170.063 21.5967 171.031 21.34 172.102 21.34C173.187 21.34 174.148 21.5893 174.984 22.088C175.834 22.572 176.502 23.2613 176.986 24.156C177.47 25.036 177.712 26.0553 177.712 27.214C177.712 27.2873 177.704 27.368 177.69 27.456C177.69 27.5293 177.69 27.61 177.69 27.698H167.636V26.532H176.854L176.238 26.994C176.238 26.158 176.054 25.4173 175.688 24.772C175.336 24.112 174.852 23.5987 174.236 23.232C173.62 22.8653 172.908 22.682 172.102 22.682C171.31 22.682 170.598 22.8653 169.968 23.232C169.337 23.5987 168.846 24.112 168.494 24.772C168.142 25.432 167.966 26.1873 167.966 27.038V27.28C167.966 28.16 168.156 28.9373 168.538 29.612C168.934 30.272 169.476 30.7927 170.166 31.174C170.87 31.5407 171.669 31.724 172.564 31.724C173.268 31.724 173.92 31.5993 174.522 31.35C175.138 31.1007 175.666 30.7193 176.106 30.206L176.986 31.218C176.472 31.834 175.827 32.3033 175.05 32.626C174.287 32.9487 173.444 33.11 172.52 33.11ZM183.993 33.11C183.04 33.11 182.138 32.978 181.287 32.714C180.436 32.4353 179.769 32.0907 179.285 31.68L179.989 30.448C180.458 30.8 181.06 31.108 181.793 31.372C182.526 31.6213 183.296 31.746 184.103 31.746C185.203 31.746 185.995 31.5773 186.479 31.24C186.963 30.888 187.205 30.426 187.205 29.854C187.205 29.4287 187.066 29.0987 186.787 28.864C186.523 28.6147 186.171 28.4313 185.731 28.314C185.291 28.182 184.8 28.072 184.257 27.984C183.714 27.896 183.172 27.7933 182.629 27.676C182.101 27.5587 181.617 27.39 181.177 27.17C180.737 26.9353 180.378 26.62 180.099 26.224C179.835 25.828 179.703 25.3 179.703 24.64C179.703 24.0093 179.879 23.4447 180.231 22.946C180.583 22.4473 181.096 22.0587 181.771 21.78C182.46 21.4867 183.296 21.34 184.279 21.34C185.027 21.34 185.775 21.4427 186.523 21.648C187.271 21.8387 187.887 22.0953 188.371 22.418L187.689 23.672C187.176 23.32 186.626 23.0707 186.039 22.924C185.452 22.7627 184.866 22.682 184.279 22.682C183.238 22.682 182.468 22.8653 181.969 23.232C181.485 23.584 181.243 24.0387 181.243 24.596C181.243 25.036 181.375 25.3807 181.639 25.63C181.918 25.8793 182.277 26.0773 182.717 26.224C183.172 26.356 183.663 26.466 184.191 26.554C184.734 26.642 185.269 26.752 185.797 26.884C186.34 27.0013 186.831 27.17 187.271 27.39C187.726 27.5953 188.085 27.896 188.349 28.292C188.628 28.6733 188.767 29.1793 188.767 29.81C188.767 30.4847 188.576 31.0713 188.195 31.57C187.828 32.054 187.286 32.4353 186.567 32.714C185.863 32.978 185.005 33.11 183.993 33.11ZM194.735 33.11C193.782 33.11 192.88 32.978 192.029 32.714C191.178 32.4353 190.511 32.0907 190.027 31.68L190.731 30.448C191.2 30.8 191.802 31.108 192.535 31.372C193.268 31.6213 194.038 31.746 194.845 31.746C195.945 31.746 196.737 31.5773 197.221 31.24C197.705 30.888 197.947 30.426 197.947 29.854C197.947 29.4287 197.808 29.0987 197.529 28.864C197.265 28.6147 196.913 28.4313 196.473 28.314C196.033 28.182 195.542 28.072 194.999 27.984C194.456 27.896 193.914 27.7933 193.371 27.676C192.843 27.5587 192.359 27.39 191.919 27.17C191.479 26.9353 191.12 26.62 190.841 26.224C190.577 25.828 190.445 25.3 190.445 24.64C190.445 24.0093 190.621 23.4447 190.973 22.946C191.325 22.4473 191.838 22.0587 192.513 21.78C193.202 21.4867 194.038 21.34 195.021 21.34C195.769 21.34 196.517 21.4427 197.265 21.648C198.013 21.8387 198.629 22.0953 199.113 22.418L198.431 23.672C197.918 23.32 197.368 23.0707 196.781 22.924C196.194 22.7627 195.608 22.682 195.021 22.682C193.98 22.682 193.21 22.8653 192.711 23.232C192.227 23.584 191.985 24.0387 191.985 24.596C191.985 25.036 192.117 25.3807 192.381 25.63C192.66 25.8793 193.019 26.0773 193.459 26.224C193.914 26.356 194.405 26.466 194.933 26.554C195.476 26.642 196.011 26.752 196.539 26.884C197.082 27.0013 197.573 27.17 198.013 27.39C198.468 27.5953 198.827 27.896 199.091 28.292C199.37 28.6733 199.509 29.1793 199.509 29.81C199.509 30.4847 199.318 31.0713 198.937 31.57C198.57 32.054 198.028 32.4353 197.309 32.714C196.605 32.978 195.747 33.11 194.735 33.11Z" fill="#229EBC"/>
</g>
<defs>
<filter id="filter0_d_139_100" x="0" y="0" width="412" height="58" filterUnits="userSpaceOnUse" color-interpolation-filters="sRGB">
<feFlood flood-opacity="0" result="BackgroundImageFix"/>
<feColorMatrix in="SourceAlpha" type="matrix" values="0 0 0 0 0 0 0 0 0 0 0 0 0 0 0 0 0 0 127 0" result="hardAlpha"/>
<feOffset dy="4"/>
<feGaussianBlur stdDeviation="2"/>
<feComposite in2="hardAlpha" operator="out"/>
<feColorMatrix type="matrix" values="0 0 0 0 0.372549 0 0 0 0 0.360784 0 0 0 0 0.454902 0 0 0 1 0"/>
<feBlend mode="normal" in2="BackgroundImageFix" result="effect1_dropShadow_139_100"/>
<feBlend mode="normal" in="SourceGraphic" in2="effect1_dropShadow_139_100" result="shape"/>
</filter>
</defs>
</svg>
