<svg width="180" height="22" viewBox="0 0 180 22" fill="none" xmlns="http://www.w3.org/2000/svg">
<path d="M0.49068 17L3.57068 1.6H5.77068L3.06468 15.086H11.4247L11.0507 17H0.49068ZM18.2428 17.132C17.2601 17.132 16.3801 16.934 15.6028 16.538C14.8255 16.1273 14.2095 15.548 13.7548 14.8C13.3148 14.052 13.0948 13.15 13.0948 12.094C13.0948 11.0967 13.2561 10.18 13.5788 9.344C13.9161 8.508 14.3781 7.782 14.9648 7.166C15.5661 6.55 16.2701 6.07333 17.0768 5.736C17.8835 5.39867 18.7561 5.23 19.6948 5.23C20.7068 5.23 21.5648 5.406 22.2688 5.758C22.9728 6.11 23.5155 6.63067 23.8968 7.32C24.2781 7.99467 24.4688 8.82333 24.4688 9.806C24.4688 11.2433 24.2195 12.5193 23.7208 13.634C23.2221 14.734 22.5035 15.592 21.5648 16.208C20.6408 16.824 19.5335 17.132 18.2428 17.132ZM18.7048 15.284C19.5848 15.284 20.3695 15.0713 21.0588 14.646C21.7481 14.2207 22.2835 13.6413 22.6648 12.908C23.0608 12.16 23.2588 11.3093 23.2588 10.356C23.2588 9.32933 22.9581 8.53 22.3568 7.958C21.7555 7.37133 20.8975 7.078 19.7828 7.078C18.9175 7.078 18.1401 7.29067 17.4508 7.716C16.7615 8.12667 16.2188 8.706 15.8228 9.454C15.4268 10.1873 15.2288 11.038 15.2288 12.006C15.2288 13.018 15.5295 13.8173 16.1308 14.404C16.7321 14.9907 17.5901 15.284 18.7048 15.284ZM22.0708 17L22.6868 13.986L23.3908 11.28L23.6768 8.508L24.2928 5.34H26.4048L24.0948 17H22.0708ZM33.0629 17.132C32.0655 17.132 31.2222 16.9267 30.5329 16.516C29.8582 16.1053 29.3815 15.5113 29.1029 14.734C28.8242 13.942 28.7949 12.9887 29.0149 11.874L30.3129 5.34H32.4249L31.1269 11.896C30.9215 12.9373 31.0242 13.7587 31.4349 14.36C31.8602 14.9467 32.6082 15.24 33.6789 15.24C34.7789 15.24 35.7029 14.932 36.4509 14.316C37.1989 13.7 37.6975 12.7687 37.9469 11.522L39.1789 5.34H41.2909L38.9809 17H36.9569L37.6169 13.656L37.9909 14.558C37.4482 15.438 36.7442 16.0907 35.8789 16.516C35.0282 16.9267 34.0895 17.132 33.0629 17.132ZM51.2736 5.23C52.3002 5.23 53.1582 5.43533 53.8476 5.846C54.5369 6.25667 55.0136 6.858 55.2776 7.65C55.5562 8.42733 55.5856 9.366 55.3656 10.466L54.0676 17H51.9556L53.2536 10.466C53.4736 9.41 53.3709 8.58867 52.9456 8.002C52.5202 7.41533 51.7576 7.122 50.6576 7.122C49.5282 7.122 48.5896 7.43 47.8416 8.046C47.0936 8.64733 46.5949 9.57867 46.3456 10.84L45.1136 17H43.0016L45.3116 5.34H47.3356L46.6756 8.684L46.2796 7.782C46.8369 6.902 47.5409 6.25667 48.3916 5.846C49.2569 5.43533 50.2176 5.23 51.2736 5.23ZM63.4982 17.132C62.3688 17.132 61.3862 16.9267 60.5502 16.516C59.7288 16.0907 59.0908 15.504 58.6362 14.756C58.1815 13.9933 57.9542 13.106 57.9542 12.094C57.9542 10.774 58.2475 9.60067 58.8342 8.574C59.4208 7.53267 60.2348 6.71867 61.2762 6.132C62.3175 5.53067 63.4982 5.23 64.8182 5.23C65.9475 5.23 66.9155 5.44267 67.7222 5.868C68.5288 6.27867 69.1595 6.90933 69.6142 7.76L67.8322 8.75C67.5388 8.178 67.1208 7.76 66.5782 7.496C66.0502 7.21733 65.4122 7.078 64.6642 7.078C63.7842 7.078 62.9995 7.29067 62.3102 7.716C61.6208 8.12667 61.0782 8.706 60.6822 9.454C60.2862 10.1873 60.0882 11.038 60.0882 12.006C60.0882 13.018 60.3888 13.8173 60.9902 14.404C61.6062 14.9907 62.4715 15.284 63.5862 15.284C64.2755 15.284 64.9208 15.1447 65.5222 14.866C66.1382 14.5873 66.6515 14.1767 67.0622 13.634L68.6022 14.734C68.0742 15.482 67.3555 16.0687 66.4462 16.494C65.5368 16.9193 64.5542 17.132 63.4982 17.132ZM78.6661 5.23C79.6928 5.23 80.5508 5.43533 81.2401 5.846C81.9295 6.25667 82.4061 6.858 82.6701 7.65C82.9488 8.42733 82.9781 9.366 82.7581 10.466L81.4601 17H79.3481L80.6461 10.466C80.8661 9.41 80.7635 8.58867 80.3381 8.002C79.9128 7.41533 79.1501 7.122 78.0501 7.122C76.9208 7.122 75.9821 7.43 75.2341 8.046C74.4861 8.64733 73.9875 9.57867 73.7381 10.84L72.5061 17H70.3941L73.6501 0.675999H75.7621L74.1561 8.684L73.6721 7.782C74.2295 6.902 74.9335 6.25667 75.7841 5.846C76.6495 5.43533 77.6101 5.23 78.6661 5.23ZM85.3687 17L87.6787 5.34H89.7907L87.4807 17H85.3687ZM89.3507 3.096C88.9547 3.096 88.6321 2.97133 88.3827 2.722C88.1481 2.47267 88.0307 2.172 88.0307 1.82C88.0307 1.40933 88.1701 1.06467 88.4487 0.785999C88.7274 0.492666 89.0941 0.345999 89.5487 0.345999C89.9301 0.345999 90.2454 0.470666 90.4947 0.72C90.7587 0.954666 90.8907 1.24067 90.8907 1.578C90.8907 2.03267 90.7514 2.39933 90.4727 2.678C90.1941 2.95667 89.8201 3.096 89.3507 3.096ZM99.7853 5.23C100.812 5.23 101.67 5.43533 102.359 5.846C103.049 6.25667 103.525 6.858 103.789 7.65C104.068 8.42733 104.097 9.366 103.877 10.466L102.579 17H100.467L101.765 10.466C101.985 9.41 101.883 8.58867 101.457 8.002C101.032 7.41533 100.269 7.122 99.1693 7.122C98.0399 7.122 97.1013 7.43 96.3533 8.046C95.6053 8.64733 95.1066 9.57867 94.8573 10.84L93.6253 17H91.5133L93.8233 5.34H95.8473L95.1873 8.684L94.7913 7.782C95.3486 6.902 96.0526 6.25667 96.9033 5.846C97.7686 5.43533 98.7293 5.23 99.7853 5.23ZM110.976 21.4C109.876 21.4 108.871 21.2533 107.962 20.96C107.053 20.6813 106.283 20.278 105.652 19.75L106.818 18.122C107.273 18.5473 107.874 18.8847 108.622 19.134C109.385 19.398 110.221 19.53 111.13 19.53C112.509 19.53 113.565 19.2147 114.298 18.584C115.031 17.968 115.523 17.022 115.772 15.746L116.322 13.04L116.982 10.862L117.312 8.53L117.95 5.34H119.952L117.95 15.416C117.525 17.528 116.74 19.0533 115.596 19.992C114.452 20.9307 112.912 21.4 110.976 21.4ZM111.724 16.516C110.712 16.516 109.81 16.3253 109.018 15.944C108.241 15.5627 107.632 15.02 107.192 14.316C106.752 13.5973 106.532 12.7467 106.532 11.764C106.532 10.8253 106.693 9.96733 107.016 9.19C107.353 8.398 107.815 7.70867 108.402 7.122C108.989 6.52067 109.685 6.05867 110.492 5.736C111.313 5.39867 112.208 5.23 113.176 5.23C114.056 5.23 114.855 5.384 115.574 5.692C116.307 6 116.887 6.47667 117.312 7.122C117.752 7.75267 117.972 8.574 117.972 9.586C117.987 10.8767 117.745 12.05 117.246 13.106C116.747 14.1473 116.029 14.976 115.09 15.592C114.166 16.208 113.044 16.516 111.724 16.516ZM112.142 14.668C113.037 14.668 113.821 14.47 114.496 14.074C115.185 13.678 115.728 13.1353 116.124 12.446C116.52 11.7567 116.718 10.972 116.718 10.092C116.718 9.15333 116.41 8.42 115.794 7.892C115.193 7.34933 114.342 7.078 113.242 7.078C112.347 7.078 111.555 7.276 110.866 7.672C110.191 8.05333 109.656 8.58867 109.26 9.278C108.864 9.96733 108.666 10.752 108.666 11.632C108.666 12.5853 108.974 13.3333 109.59 13.876C110.206 14.404 111.057 14.668 112.142 14.668ZM131.26 17.132C130.277 17.132 129.346 17.0073 128.466 16.758C127.6 16.494 126.933 16.1713 126.464 15.79L127.41 14.118C127.864 14.47 128.451 14.756 129.17 14.976C129.903 15.196 130.666 15.306 131.458 15.306C132.47 15.306 133.232 15.152 133.746 14.844C134.259 14.536 134.516 14.118 134.516 13.59C134.516 13.2087 134.362 12.9227 134.054 12.732C133.746 12.5267 133.342 12.3727 132.844 12.27C132.36 12.1527 131.839 12.0427 131.282 11.94C130.724 11.8227 130.204 11.6613 129.72 11.456C129.236 11.2507 128.832 10.9573 128.51 10.576C128.202 10.18 128.048 9.65933 128.048 9.014C128.048 8.23667 128.268 7.56933 128.708 7.012C129.148 6.44 129.764 6 130.556 5.692C131.348 5.384 132.272 5.23 133.328 5.23C134.09 5.23 134.838 5.32533 135.572 5.516C136.32 5.692 136.928 5.94867 137.398 6.286L136.562 7.958C136.078 7.62067 135.535 7.386 134.934 7.254C134.332 7.10733 133.731 7.034 133.13 7.034C132.147 7.034 131.406 7.20267 130.908 7.54C130.409 7.86267 130.16 8.27333 130.16 8.772C130.16 9.15333 130.314 9.454 130.622 9.674C130.93 9.87933 131.326 10.0407 131.81 10.158C132.308 10.2753 132.829 10.3927 133.372 10.51C133.929 10.6127 134.45 10.7667 134.934 10.972C135.432 11.1627 135.836 11.4487 136.144 11.83C136.452 12.1967 136.606 12.7027 136.606 13.348C136.606 14.1547 136.378 14.844 135.924 15.416C135.484 15.9733 134.86 16.3987 134.054 16.692C133.247 16.9853 132.316 17.132 131.26 17.132ZM144.063 17.132C142.948 17.132 141.98 16.9267 141.159 16.516C140.352 16.0907 139.722 15.504 139.267 14.756C138.812 13.9933 138.585 13.106 138.585 12.094C138.585 10.774 138.878 9.60067 139.465 8.574C140.052 7.53267 140.858 6.71867 141.885 6.132C142.926 5.53067 144.107 5.23 145.427 5.23C146.527 5.23 147.488 5.43533 148.309 5.846C149.13 6.25667 149.761 6.836 150.201 7.584C150.656 8.332 150.883 9.21933 150.883 10.246C150.883 11.566 150.59 12.7467 150.003 13.788C149.416 14.8147 148.61 15.6287 147.583 16.23C146.571 16.8313 145.398 17.132 144.063 17.132ZM144.195 15.284C145.075 15.284 145.86 15.0713 146.549 14.646C147.238 14.2207 147.774 13.6413 148.155 12.908C148.551 12.16 148.749 11.3093 148.749 10.356C148.749 9.32933 148.448 8.53 147.847 7.958C147.246 7.37133 146.388 7.078 145.273 7.078C144.408 7.078 143.63 7.29067 142.941 7.716C142.252 8.12667 141.709 8.706 141.313 9.454C140.917 10.1873 140.719 11.038 140.719 12.006C140.719 13.018 141.02 13.8173 141.621 14.404C142.222 14.9907 143.08 15.284 144.195 15.284ZM158.028 17.132C156.913 17.132 155.945 16.9267 155.124 16.516C154.317 16.0907 153.687 15.504 153.232 14.756C152.777 13.9933 152.55 13.106 152.55 12.094C152.55 10.774 152.843 9.60067 153.43 8.574C154.017 7.53267 154.823 6.71867 155.85 6.132C156.891 5.53067 158.072 5.23 159.392 5.23C160.492 5.23 161.453 5.43533 162.274 5.846C163.095 6.25667 163.726 6.836 164.166 7.584C164.621 8.332 164.848 9.21933 164.848 10.246C164.848 11.566 164.555 12.7467 163.968 13.788C163.381 14.8147 162.575 15.6287 161.548 16.23C160.536 16.8313 159.363 17.132 158.028 17.132ZM158.16 15.284C159.04 15.284 159.825 15.0713 160.514 14.646C161.203 14.2207 161.739 13.6413 162.12 12.908C162.516 12.16 162.714 11.3093 162.714 10.356C162.714 9.32933 162.413 8.53 161.812 7.958C161.211 7.37133 160.353 7.078 159.238 7.078C158.373 7.078 157.595 7.29067 156.906 7.716C156.217 8.12667 155.674 8.706 155.278 9.454C154.882 10.1873 154.684 11.038 154.684 12.006C154.684 13.018 154.985 13.8173 155.586 14.404C156.187 14.9907 157.045 15.284 158.16 15.284ZM174.809 5.23C175.835 5.23 176.693 5.43533 177.383 5.846C178.072 6.25667 178.549 6.858 178.813 7.65C179.091 8.42733 179.121 9.366 178.901 10.466L177.603 17H175.491L176.789 10.466C177.009 9.41 176.906 8.58867 176.481 8.002C176.055 7.41533 175.293 7.122 174.193 7.122C173.063 7.122 172.125 7.43 171.377 8.046C170.629 8.64733 170.13 9.57867 169.881 10.84L168.649 17H166.537L168.847 5.34H170.871L170.211 8.684L169.815 7.782C170.372 6.902 171.076 6.25667 171.927 5.846C172.792 5.43533 173.753 5.23 174.809 5.23Z" fill="#FFB706"/>
</svg>
