<svg width="232" height="556" viewBox="0 0 232 556" fill="none" xmlns="http://www.w3.org/2000/svg">
<g filter="url(#filter0_d_290_275)">
<path d="M222.319 358.898L144.008 335.79L120.899 414.102L199.211 437.21L222.319 358.898ZM-499.891 4C-509.556 1.43307 -509.558 1.43883 -509.56 1.44662C-509.561 1.45192 -509.564 1.46176 -509.566 1.47236C-509.572 1.49357 -509.58 1.52287 -509.59 1.5602C-509.609 1.63486 -509.637 1.74164 -509.673 1.88003C-509.744 2.1568 -509.848 2.56003 -509.98 3.08563C-510.245 4.1368 -510.626 5.67766 -511.101 7.67561C-512.049 11.6712 -513.373 17.4968 -514.891 24.8915C-517.926 39.6768 -521.744 60.7576 -524.901 86.0423C-531.204 136.529 -534.924 204.166 -524.294 272.047C-513.668 339.896 -488.571 408.805 -436.531 460.793C-384.282 512.991 -306.007 547 -191.391 547V527C-301.806 527 -374.609 494.384 -422.396 446.644C-470.393 398.695 -494.292 334.354 -504.534 268.953C-514.771 203.584 -511.229 137.971 -505.055 88.5202C-501.973 63.8361 -498.247 43.2763 -495.299 28.9132C-493.825 21.7337 -492.547 16.1081 -491.642 12.2961C-491.189 10.3902 -490.83 8.93815 -490.587 7.97235C-490.465 7.48947 -490.372 7.1282 -490.311 6.8926C-490.281 6.7748 -490.258 6.68842 -490.244 6.63397C-490.237 6.60675 -490.232 6.58751 -490.229 6.57631C-490.227 6.57071 -490.227 6.56838 -490.226 6.56556C-490.226 6.56524 -490.226 6.56693 -499.891 4ZM-191.391 547C-167.764 547 -132.721 536.944 -94.7063 522.862C-56.2416 508.612 -13.2822 489.666 26.8052 470.798C66.921 451.916 104.304 433.044 131.649 418.897C145.325 411.822 156.499 405.925 164.259 401.794C168.139 399.728 171.166 398.104 173.225 396.994C174.255 396.439 175.043 396.013 175.576 395.725C175.842 395.581 176.044 395.471 176.18 395.397C176.248 395.36 176.3 395.332 176.335 395.313C176.352 395.304 176.366 395.296 176.375 395.291C176.38 395.289 176.383 395.287 176.386 395.286C176.388 395.284 176.39 395.283 171.609 386.5C166.828 377.717 166.828 377.717 166.826 377.718C166.824 377.719 166.822 377.72 166.818 377.722C166.81 377.727 166.799 377.733 166.783 377.742C166.751 377.759 166.702 377.786 166.637 377.821C166.507 377.892 166.311 377.998 166.051 378.138C165.532 378.42 164.757 378.839 163.74 379.386C161.707 380.481 158.709 382.09 154.86 384.14C147.16 388.239 136.057 394.099 122.46 401.134C95.2579 415.206 58.1096 433.959 18.2878 452.702C-21.5623 471.459 -63.9468 490.138 -101.654 504.107C-139.812 518.243 -171.769 527 -191.391 527V547Z" fill="#8ECAE6"/>
</g>
<defs>
<filter id="filter0_d_290_275" x="-532" y="0.445312" width="763.318" height="555.555" filterUnits="userSpaceOnUse" color-interpolation-filters="sRGB">
<feFlood flood-opacity="0" result="BackgroundImageFix"/>
<feColorMatrix in="SourceAlpha" type="matrix" values="0 0 0 0 0 0 0 0 0 0 0 0 0 0 0 0 0 0 127 0" result="hardAlpha"/>
<feOffset dx="4" dy="4"/>
<feGaussianBlur stdDeviation="2.5"/>
<feComposite in2="hardAlpha" operator="out"/>
<feColorMatrix type="matrix" values="0 0 0 0 0.829167 0 0 0 0 0.966721 0 0 0 0 1 0 0 0 1 0"/>
<feBlend mode="normal" in2="BackgroundImageFix" result="effect1_dropShadow_290_275"/>
<feBlend mode="normal" in="SourceGraphic" in2="effect1_dropShadow_290_275" result="shape"/>
</filter>
</defs>
</svg>
