<svg width="98" height="49" viewBox="0 0 98 49" fill="none" xmlns="http://www.w3.org/2000/svg">
<path d="M0.510674 18.3835L2.38352 25.4893L9.48933 23.6165L7.61648 16.5107L0.510674 18.3835ZM87.786 0.568958L86.069 7.71401L93.214 9.43104L94.931 2.28599L87.786 0.568958ZM5 21C4.54681 21.7776 4.5472 21.7778 4.54789 21.7782C4.54853 21.7786 4.54953 21.7792 4.55082 21.7799C4.55339 21.7814 4.5572 21.7836 4.56223 21.7865C4.57228 21.7924 4.58723 21.8011 4.60698 21.8126C4.64648 21.8355 4.70519 21.8696 4.78243 21.9143C4.9369 22.0037 5.16548 22.1356 5.46263 22.3063C6.05693 22.6477 6.92557 23.1439 8.02434 23.7642C10.2218 25.0048 13.3402 26.742 17.0259 28.7297C24.3941 32.7031 34.0427 37.6845 43.1366 41.6984C47.6831 43.7051 52.1038 45.4757 56.0396 46.7581C59.9578 48.0347 63.4633 48.8505 66.1554 48.8998C67.5011 48.9245 68.7196 48.7601 69.7019 48.3056C70.7176 47.8355 71.4652 47.0589 71.8007 45.9526C72.1238 44.8874 72.0349 43.6158 71.6177 42.1733C71.1982 40.7225 70.4241 39.0214 69.2783 37.0481L67.7217 37.9519C68.8259 39.8536 69.5245 41.4142 69.8886 42.6734C70.2551 43.9408 70.261 44.8274 70.0782 45.4302C69.9079 45.9918 69.549 46.393 68.946 46.672C68.3097 46.9664 67.3974 47.1223 66.1884 47.1002C63.771 47.0558 60.4719 46.3091 56.5972 45.0466C52.7399 43.7899 48.3794 42.0449 43.8634 40.0516C34.8323 36.0655 25.2309 31.1094 17.8803 27.1453C14.2067 25.1642 11.0985 23.4327 8.90926 22.1967C7.81467 21.5788 6.94991 21.0848 6.35914 20.7455C6.06377 20.5758 5.8369 20.4448 5.68406 20.3564C5.60764 20.3121 5.54974 20.2785 5.51103 20.2561C5.49167 20.2448 5.47712 20.2364 5.46745 20.2307C5.46261 20.2279 5.459 20.2258 5.45662 20.2244C5.45543 20.2237 5.45457 20.2232 5.45398 20.2229C5.45343 20.2226 5.45319 20.2224 5 21ZM69.2783 37.0481C67.0459 33.2033 66.1882 30.5862 66.1822 28.8407C66.1793 27.9931 66.3773 27.3819 66.6895 26.9237C67.0043 26.4616 67.4823 26.0863 68.1508 25.7929C69.5257 25.1894 71.5406 25.0017 73.9965 25.0405C76.4342 25.0791 79.1398 25.3331 81.8752 25.5228C84.5787 25.7104 87.3018 25.8339 89.6552 25.5824C91.9841 25.3336 94.1399 24.7003 95.5268 23.206C96.9617 21.66 97.3812 19.415 96.7301 16.4183C96.0821 13.436 94.3491 9.56111 91.2675 4.52992L89.7325 5.47008C92.7759 10.4389 94.3867 14.1108 94.9711 16.8005C95.5524 19.4756 95.093 21.0275 94.2075 21.9815C93.2742 22.9872 91.6682 23.5571 89.464 23.7926C87.2841 24.0255 84.7025 23.9146 81.9998 23.7272C79.3289 23.5419 76.5268 23.2803 74.025 23.2407C71.5414 23.2015 69.1853 23.3731 67.4274 24.1446C66.5295 24.5387 65.7506 25.1048 65.2019 25.9103C64.6505 26.7197 64.3783 27.7022 64.3822 28.8468C64.3899 31.0857 65.4541 34.0467 67.7217 37.9519L69.2783 37.0481Z" fill="#229EBC"/>
</svg>
