<svg width="705" height="272" viewBox="0 0 705 272" fill="none" xmlns="http://www.w3.org/2000/svg">
<g filter="url(#filter0_d_290_276)">
<path d="M224.622 194.394L231.024 202.076L224.622 194.394ZM695.899 234.136L683.061 153.502L602.427 166.341L615.265 246.975L695.899 234.136ZM-228.547 6.23178C-237.349 10.9779 -237.346 10.9824 -237.343 10.9884C-237.341 10.9924 -237.337 10.9998 -237.333 11.0078C-237.324 11.0237 -237.312 11.0455 -237.297 11.0731C-237.267 11.1284 -237.224 11.2072 -237.169 11.3088C-237.058 11.5122 -236.896 11.8074 -236.683 12.1907C-236.259 12.9572 -235.633 14.0761 -234.812 15.5173C-233.17 18.3995 -230.745 22.5722 -227.58 27.7946C-221.252 38.2363 -211.957 52.8906 -200.042 69.8256C-176.254 103.637 -141.833 146.813 -99.5314 183.689C-57.3054 220.5 -6.52942 251.642 49.9436 260.199C106.897 268.828 168.377 254.286 231.024 202.076L218.22 186.712C159.536 235.62 103.705 248.116 52.9397 240.425C1.69424 232.66 -45.6557 204.123 -86.3891 168.613C-127.047 133.169 -160.42 91.3852 -183.685 58.3174C-195.297 41.8125 -204.344 27.5469 -210.476 17.4288C-213.541 12.3712 -215.875 8.35399 -217.435 5.61622C-218.215 4.24746 -218.801 3.19888 -219.188 2.50039C-219.381 2.15116 -219.525 1.88948 -219.618 1.7191C-219.664 1.63391 -219.698 1.57155 -219.719 1.53248C-219.73 1.51295 -219.737 1.49924 -219.742 1.49142C-219.744 1.4875 -219.745 1.48607 -219.746 1.4841C-219.746 1.48413 -219.745 1.48565 -228.547 6.23178ZM231.024 202.076C324.629 124.065 427.057 125.284 507.011 146.417C547.024 156.993 581.191 172.524 605.371 185.434C617.448 191.882 626.997 197.656 633.497 201.797C636.746 203.866 639.23 205.527 640.885 206.657C641.713 207.222 642.332 207.654 642.736 207.938C642.938 208.081 643.086 208.186 643.179 208.252C643.225 208.286 643.258 208.309 643.277 208.323C643.286 208.329 643.292 208.334 643.295 208.336C643.296 208.336 643.295 208.336 643.296 208.336C643.294 208.335 643.292 208.333 649.163 200.238C655.034 192.143 655.03 192.14 655.025 192.136C655.022 192.134 655.016 192.13 655.01 192.126C654.999 192.117 654.983 192.107 654.965 192.093C654.928 192.066 654.876 192.03 654.811 191.983C654.681 191.89 654.495 191.757 654.254 191.588C653.773 191.249 653.074 190.761 652.164 190.14C650.344 188.897 647.682 187.12 644.243 184.929C637.367 180.548 627.375 174.509 614.791 167.791C589.651 154.369 554.02 138.155 512.122 127.081C428.254 104.914 318.412 103.211 218.22 186.712L231.024 202.076Z" fill="#229EBC"/>
</g>
<defs>
<filter id="filter0_d_290_276" x="-238.344" y="0.484375" width="943.244" height="271.038" filterUnits="userSpaceOnUse" color-interpolation-filters="sRGB">
<feFlood flood-opacity="0" result="BackgroundImageFix"/>
<feColorMatrix in="SourceAlpha" type="matrix" values="0 0 0 0 0 0 0 0 0 0 0 0 0 0 0 0 0 0 127 0" result="hardAlpha"/>
<feOffset dx="4" dy="4"/>
<feGaussianBlur stdDeviation="2.5"/>
<feComposite in2="hardAlpha" operator="out"/>
<feColorMatrix type="matrix" values="0 0 0 0 0.831244 0 0 0 0 0.963771 0 0 0 0 0.995833 0 0 0 1 0"/>
<feBlend mode="normal" in2="BackgroundImageFix" result="effect1_dropShadow_290_276"/>
<feBlend mode="normal" in="SourceGraphic" in2="effect1_dropShadow_290_276" result="shape"/>
</filter>
</defs>
</svg>
